G04 start of page 12 for group -3984 idx -3984 *
G04 Title: (unknown), fab *
G04 Creator: pcb 20110918 *
G04 CreationDate: Sun 25 Aug 2013 04:17:39 AM GMT UTC *
G04 For: railfan *
G04 Format: Gerber/RS-274X *
G04 PCB-Dimensions: 170000 100000 *
G04 PCB-Coordinate-Origin: lower left *
%MOIN*%
%FSLAX25Y25*%
%LNFAB*%
%ADD72C,0.0100*%
%ADD71C,0.0075*%
%ADD70C,0.0060*%
%ADD69C,0.0001*%
%ADD68R,0.0080X0.0080*%
G54D68*X153000Y17000D02*Y13800D01*
G54D69*G36*
X152454Y17147D02*X155920Y19146D01*
X156320Y18453D01*
X152853Y16454D01*
X152454Y17147D01*
G37*
G36*
X153147Y16454D02*X149680Y18453D01*
X150080Y19146D01*
X153546Y17147D01*
X153147Y16454D01*
G37*
G54D68*X151400Y17000D02*G75*G03X154600Y17000I1600J0D01*G01*
G75*G03X151400Y17000I-1600J0D01*G01*
X17000D02*Y13800D01*
G54D69*G36*
X16454Y17147D02*X19920Y19146D01*
X20320Y18453D01*
X16853Y16454D01*
X16454Y17147D01*
G37*
G36*
X17147Y16454D02*X13680Y18453D01*
X14080Y19146D01*
X17546Y17147D01*
X17147Y16454D01*
G37*
G54D68*X15400Y17000D02*G75*G03X18600Y17000I1600J0D01*G01*
G75*G03X15400Y17000I-1600J0D01*G01*
X15000Y111250D02*Y108050D01*
G54D69*G36*
X14454Y111397D02*X17920Y113396D01*
X18320Y112703D01*
X14853Y110704D01*
X14454Y111397D01*
G37*
G36*
X15147Y110704D02*X11680Y112703D01*
X12080Y113396D01*
X15546Y111397D01*
X15147Y110704D01*
G37*
G54D68*X13400Y111250D02*G75*G03X16600Y111250I1600J0D01*G01*
G75*G03X13400Y111250I-1600J0D01*G01*
G54D70*X135000Y113500D02*X136500Y110500D01*
X138000Y113500D01*
X136500Y110500D02*Y107500D01*
X139800Y110800D02*X142050D01*
X139800Y107500D02*X142800D01*
X139800Y113500D02*Y107500D01*
Y113500D02*X142800D01*
X147600D02*X148350Y112750D01*
X145350Y113500D02*X147600D01*
X144600Y112750D02*X145350Y113500D01*
X144600Y112750D02*Y111250D01*
X145350Y110500D01*
X147600D01*
X148350Y109750D01*
Y108250D01*
X147600Y107500D02*X148350Y108250D01*
X145350Y107500D02*X147600D01*
X144600Y108250D02*X145350Y107500D01*
X98000Y112750D02*X98750Y113500D01*
X101000D01*
X101750Y112750D01*
Y111250D01*
X98000Y107500D02*X101750Y111250D01*
X98000Y107500D02*X101750D01*
X45000Y108250D02*X45750Y107500D01*
X45000Y112750D02*Y108250D01*
Y112750D02*X45750Y113500D01*
X47250D01*
X48000Y112750D01*
Y108250D01*
X47250Y107500D02*X48000Y108250D01*
X45750Y107500D02*X47250D01*
X45000Y109000D02*X48000Y112000D01*
X49800Y107500D02*X50550D01*
X52350Y112300D02*X53550Y113500D01*
Y107500D01*
X52350D02*X54600D01*
X56400Y112750D02*X57150Y113500D01*
X59400D01*
X60150Y112750D01*
Y111250D01*
X56400Y107500D02*X60150Y111250D01*
X56400Y107500D02*X60150D01*
X62700D02*X64950Y110500D01*
Y112750D02*Y110500D01*
X64200Y113500D02*X64950Y112750D01*
X62700Y113500D02*X64200D01*
X61950Y112750D02*X62700Y113500D01*
X61950Y112750D02*Y111250D01*
X62700Y110500D01*
X64950D01*
X107900Y90100D02*X111100D01*
X107900D02*Y86900D01*
X111100D01*
Y90100D02*Y86900D01*
X67900Y90100D02*X71100D01*
X67900D02*Y86900D01*
X71100D01*
Y90100D02*Y86900D01*
X49900Y90100D02*X53100D01*
X49900D02*Y86900D01*
X53100D01*
Y90100D02*Y86900D01*
X9900Y90100D02*X13100D01*
X9900D02*Y86900D01*
X13100D01*
Y90100D02*Y86900D01*
X13400Y127850D02*X16600D01*
X13400D02*Y124650D01*
X16600D01*
Y127850D02*Y124650D01*
X135000Y128500D02*X136500Y125500D01*
X138000Y128500D01*
X136500Y125500D02*Y122500D01*
X139800Y125800D02*X142050D01*
X139800Y122500D02*X142800D01*
X139800Y128500D02*Y122500D01*
Y128500D02*X142800D01*
X147600D02*X148350Y127750D01*
X145350Y128500D02*X147600D01*
X144600Y127750D02*X145350Y128500D01*
X144600Y127750D02*Y126250D01*
X145350Y125500D01*
X147600D01*
X148350Y124750D01*
Y123250D01*
X147600Y122500D02*X148350Y123250D01*
X145350Y122500D02*X147600D01*
X144600Y123250D02*X145350Y122500D01*
X98000Y124750D02*X101000Y128500D01*
X98000Y124750D02*X101750D01*
X101000Y128500D02*Y122500D01*
X45000Y123250D02*X45750Y122500D01*
X45000Y127750D02*Y123250D01*
Y127750D02*X45750Y128500D01*
X47250D01*
X48000Y127750D01*
Y123250D01*
X47250Y122500D02*X48000Y123250D01*
X45750Y122500D02*X47250D01*
X45000Y124000D02*X48000Y127000D01*
X49800Y122500D02*X50550D01*
X52350Y127300D02*X53550Y128500D01*
Y122500D01*
X52350D02*X54600D01*
X56400Y127750D02*X57150Y128500D01*
X59400D01*
X60150Y127750D01*
Y126250D01*
X56400Y122500D02*X60150Y126250D01*
X56400Y122500D02*X60150D01*
X61950Y123250D02*X62700Y122500D01*
X61950Y124450D02*Y123250D01*
Y124450D02*X63000Y125500D01*
X63900D01*
X64950Y124450D01*
Y123250D01*
X64200Y122500D02*X64950Y123250D01*
X62700Y122500D02*X64200D01*
X61950Y126550D02*X63000Y125500D01*
X61950Y127750D02*Y126550D01*
Y127750D02*X62700Y128500D01*
X64200D01*
X64950Y127750D01*
Y126550D01*
X63900Y125500D02*X64950Y126550D01*
X98200Y23000D02*G75*G03X99800Y23000I800J0D01*G01*
G75*G03X98200Y23000I-800J0D01*G01*
X118200D02*G75*G03X119800Y23000I800J0D01*G01*
G75*G03X118200Y23000I-800J0D01*G01*
X14200Y141250D02*G75*G03X15800Y141250I800J0D01*G01*
G75*G03X14200Y141250I-800J0D01*G01*
X135000Y143500D02*X136500Y140500D01*
X138000Y143500D01*
X136500Y140500D02*Y137500D01*
X139800Y140800D02*X142050D01*
X139800Y137500D02*X142800D01*
X139800Y143500D02*Y137500D01*
Y143500D02*X142800D01*
X147600D02*X148350Y142750D01*
X145350Y143500D02*X147600D01*
X144600Y142750D02*X145350Y143500D01*
X144600Y142750D02*Y141250D01*
X145350Y140500D01*
X147600D01*
X148350Y139750D01*
Y138250D01*
X147600Y137500D02*X148350Y138250D01*
X145350Y137500D02*X147600D01*
X144600Y138250D02*X145350Y137500D01*
X98000Y142750D02*X98750Y143500D01*
X101000D01*
X101750Y142750D01*
Y141250D01*
X98000Y137500D02*X101750Y141250D01*
X98000Y137500D02*X101750D01*
X45000Y138250D02*X45750Y137500D01*
X45000Y142750D02*Y138250D01*
Y142750D02*X45750Y143500D01*
X47250D01*
X48000Y142750D01*
Y138250D01*
X47250Y137500D02*X48000Y138250D01*
X45750Y137500D02*X47250D01*
X45000Y139000D02*X48000Y142000D01*
X49800Y137500D02*X50550D01*
X52350Y138250D02*X53100Y137500D01*
X52350Y142750D02*Y138250D01*
Y142750D02*X53100Y143500D01*
X54600D01*
X55350Y142750D01*
Y138250D01*
X54600Y137500D02*X55350Y138250D01*
X53100Y137500D02*X54600D01*
X52350Y139000D02*X55350Y142000D01*
X57150Y139750D02*X60150Y143500D01*
X57150Y139750D02*X60900D01*
X60150Y143500D02*Y137500D01*
X62700Y138250D02*X63450Y137500D01*
X62700Y139450D02*Y138250D01*
Y139450D02*X63750Y140500D01*
X64650D01*
X65700Y139450D01*
Y138250D01*
X64950Y137500D02*X65700Y138250D01*
X63450Y137500D02*X64950D01*
X62700Y141550D02*X63750Y140500D01*
X62700Y142750D02*Y141550D01*
Y142750D02*X63450Y143500D01*
X64950D01*
X65700Y142750D01*
Y141550D01*
X64650Y140500D02*X65700Y141550D01*
X160800Y43200D02*X163200Y40800D01*
X160800D02*X163200Y43200D01*
X160800Y53200D02*X163200Y50800D01*
X160800D02*X163200Y53200D01*
X160800Y63200D02*X163200Y60800D01*
X160800D02*X163200Y63200D01*
X160800Y73200D02*X163200Y70800D01*
X160800D02*X163200Y73200D01*
X160800Y83200D02*X163200Y80800D01*
X160800D02*X163200Y83200D01*
X160800Y93200D02*X163200Y90800D01*
X160800D02*X163200Y93200D01*
X48800Y34200D02*X51200Y31800D01*
X48800D02*X51200Y34200D01*
X58800D02*X61200Y31800D01*
X58800D02*X61200Y34200D01*
X68800D02*X71200Y31800D01*
X68800D02*X71200Y34200D01*
X48800Y19200D02*X51200Y16800D01*
X48800D02*X51200Y19200D01*
X58800D02*X61200Y16800D01*
X58800D02*X61200Y19200D01*
X68800D02*X71200Y16800D01*
X68800D02*X71200Y19200D01*
X13800Y157450D02*X16200Y155050D01*
X13800D02*X16200Y157450D01*
X135000Y158500D02*X136500Y155500D01*
X138000Y158500D01*
X136500Y155500D02*Y152500D01*
X139800Y155800D02*X142050D01*
X139800Y152500D02*X142800D01*
X139800Y158500D02*Y152500D01*
Y158500D02*X142800D01*
X147600D02*X148350Y157750D01*
X145350Y158500D02*X147600D01*
X144600Y157750D02*X145350Y158500D01*
X144600Y157750D02*Y156250D01*
X145350Y155500D01*
X147600D01*
X148350Y154750D01*
Y153250D01*
X147600Y152500D02*X148350Y153250D01*
X145350Y152500D02*X147600D01*
X144600Y153250D02*X145350Y152500D01*
X98000Y157300D02*X99200Y158500D01*
Y152500D01*
X98000D02*X100250D01*
X102050Y157750D02*X102800Y158500D01*
X105050D01*
X105800Y157750D01*
Y156250D01*
X102050Y152500D02*X105800Y156250D01*
X102050Y152500D02*X105800D01*
X45000Y153250D02*X45750Y152500D01*
X45000Y157750D02*Y153250D01*
Y157750D02*X45750Y158500D01*
X47250D01*
X48000Y157750D01*
Y153250D01*
X47250Y152500D02*X48000Y153250D01*
X45750Y152500D02*X47250D01*
X45000Y154000D02*X48000Y157000D01*
X49800Y152500D02*X50550D01*
X52350Y153250D02*X53100Y152500D01*
X52350Y157750D02*Y153250D01*
Y157750D02*X53100Y158500D01*
X54600D01*
X55350Y157750D01*
Y153250D01*
X54600Y152500D02*X55350Y153250D01*
X53100Y152500D02*X54600D01*
X52350Y154000D02*X55350Y157000D01*
X57150Y157750D02*X57900Y158500D01*
X59400D01*
X60150Y157750D01*
X59400Y152500D02*X60150Y153250D01*
X57900Y152500D02*X59400D01*
X57150Y153250D02*X57900Y152500D01*
Y155800D02*X59400D01*
X60150Y157750D02*Y156550D01*
Y155050D02*Y153250D01*
Y155050D02*X59400Y155800D01*
X60150Y156550D02*X59400Y155800D01*
X61950Y153250D02*X62700Y152500D01*
X61950Y154450D02*Y153250D01*
Y154450D02*X63000Y155500D01*
X63900D01*
X64950Y154450D01*
Y153250D01*
X64200Y152500D02*X64950Y153250D01*
X62700Y152500D02*X64200D01*
X61950Y156550D02*X63000Y155500D01*
X61950Y157750D02*Y156550D01*
Y157750D02*X62700Y158500D01*
X64200D01*
X64950Y157750D01*
Y156550D01*
X63900Y155500D02*X64950Y156550D01*
X102000Y55100D02*Y51900D01*
X100400Y53500D02*X103600D01*
X97000Y65100D02*Y61900D01*
X95400Y63500D02*X98600D01*
X92000Y55100D02*Y51900D01*
X90400Y53500D02*X93600D01*
X87000Y65100D02*Y61900D01*
X85400Y63500D02*X88600D01*
X82000Y55100D02*Y51900D01*
X80400Y53500D02*X83600D01*
X77000Y65100D02*Y61900D01*
X75400Y63500D02*X78600D01*
X44000Y55100D02*Y51900D01*
X42400Y53500D02*X45600D01*
X39000Y65100D02*Y61900D01*
X37400Y63500D02*X40600D01*
X34000Y55100D02*Y51900D01*
X32400Y53500D02*X35600D01*
X29000Y65100D02*Y61900D01*
X27400Y63500D02*X30600D01*
X24000Y55100D02*Y51900D01*
X22400Y53500D02*X25600D01*
X19000Y65100D02*Y61900D01*
X17400Y63500D02*X20600D01*
X15000Y172850D02*Y169650D01*
X13400Y171250D02*X16600D01*
X135000Y173500D02*X136500Y170500D01*
X138000Y173500D01*
X136500Y170500D02*Y167500D01*
X139800Y170800D02*X142050D01*
X139800Y167500D02*X142800D01*
X139800Y173500D02*Y167500D01*
Y173500D02*X142800D01*
X147600D02*X148350Y172750D01*
X145350Y173500D02*X147600D01*
X144600Y172750D02*X145350Y173500D01*
X144600Y172750D02*Y171250D01*
X145350Y170500D01*
X147600D01*
X148350Y169750D01*
Y168250D01*
X147600Y167500D02*X148350Y168250D01*
X145350Y167500D02*X147600D01*
X144600Y168250D02*X145350Y167500D01*
X98000Y172300D02*X99200Y173500D01*
Y167500D01*
X98000D02*X100250D01*
X102050Y172750D02*X102800Y173500D01*
X105050D01*
X105800Y172750D01*
Y171250D01*
X102050Y167500D02*X105800Y171250D01*
X102050Y167500D02*X105800D01*
X45000Y168250D02*X45750Y167500D01*
X45000Y172750D02*Y168250D01*
Y172750D02*X45750Y173500D01*
X47250D01*
X48000Y172750D01*
Y168250D01*
X47250Y167500D02*X48000Y168250D01*
X45750Y167500D02*X47250D01*
X45000Y169000D02*X48000Y172000D01*
X49800Y167500D02*X50550D01*
X52350Y168250D02*X53100Y167500D01*
X52350Y172750D02*Y168250D01*
Y172750D02*X53100Y173500D01*
X54600D01*
X55350Y172750D01*
Y168250D01*
X54600Y167500D02*X55350Y168250D01*
X53100Y167500D02*X54600D01*
X52350Y169000D02*X55350Y172000D01*
X57150Y172750D02*X57900Y173500D01*
X59400D01*
X60150Y172750D01*
X59400Y167500D02*X60150Y168250D01*
X57900Y167500D02*X59400D01*
X57150Y168250D02*X57900Y167500D01*
Y170800D02*X59400D01*
X60150Y172750D02*Y171550D01*
Y170050D02*Y168250D01*
Y170050D02*X59400Y170800D01*
X60150Y171550D02*X59400Y170800D01*
X61950Y173500D02*X64950D01*
X61950D02*Y170500D01*
X62700Y171250D01*
X64200D01*
X64950Y170500D01*
Y168250D01*
X64200Y167500D02*X64950Y168250D01*
X62700Y167500D02*X64200D01*
X61950Y168250D02*X62700Y167500D01*
X143000Y38000D02*Y36400D01*
Y38000D02*X144387Y38800D01*
X143000Y38000D02*X141613Y38800D01*
X132500Y51000D02*Y49400D01*
Y51000D02*X133887Y51800D01*
X132500Y51000D02*X131113Y51800D01*
X120000Y74500D02*Y72900D01*
Y74500D02*X121387Y75300D01*
X120000Y74500D02*X118613Y75300D01*
X126500Y64500D02*Y62900D01*
Y64500D02*X127887Y65300D01*
X126500Y64500D02*X125113Y65300D01*
X131000Y64500D02*Y62900D01*
Y64500D02*X132387Y65300D01*
X131000Y64500D02*X129613Y65300D01*
X145000Y78500D02*Y76900D01*
Y78500D02*X146387Y79300D01*
X145000Y78500D02*X143613Y79300D01*
X145000Y85500D02*Y83900D01*
Y85500D02*X146387Y86300D01*
X145000Y85500D02*X143613Y86300D01*
X14500Y58000D02*Y56400D01*
Y58000D02*X15887Y58800D01*
X14500Y58000D02*X13113Y58800D01*
X120000Y51000D02*Y49400D01*
Y51000D02*X121387Y51800D01*
X120000Y51000D02*X118613Y51800D01*
X120000Y46500D02*Y44900D01*
Y46500D02*X121387Y47300D01*
X120000Y46500D02*X118613Y47300D01*
X120000Y55500D02*Y53900D01*
Y55500D02*X121387Y56300D01*
X120000Y55500D02*X118613Y56300D01*
X132500Y46500D02*Y44900D01*
Y46500D02*X133887Y47300D01*
X132500Y46500D02*X131113Y47300D01*
X15000Y186250D02*Y184650D01*
Y186250D02*X16387Y187050D01*
X15000Y186250D02*X13613Y187050D01*
X135000Y188500D02*X136500Y185500D01*
X138000Y188500D01*
X136500Y185500D02*Y182500D01*
X139800Y185800D02*X142050D01*
X139800Y182500D02*X142800D01*
X139800Y188500D02*Y182500D01*
Y188500D02*X142800D01*
X147600D02*X148350Y187750D01*
X145350Y188500D02*X147600D01*
X144600Y187750D02*X145350Y188500D01*
X144600Y187750D02*Y186250D01*
X145350Y185500D01*
X147600D01*
X148350Y184750D01*
Y183250D01*
X147600Y182500D02*X148350Y183250D01*
X145350Y182500D02*X147600D01*
X144600Y183250D02*X145350Y182500D01*
X98000Y187300D02*X99200Y188500D01*
Y182500D01*
X98000D02*X100250D01*
X102050Y187750D02*X102800Y188500D01*
X105050D01*
X105800Y187750D01*
Y186250D01*
X102050Y182500D02*X105800Y186250D01*
X102050Y182500D02*X105800D01*
X45000Y183250D02*X45750Y182500D01*
X45000Y187750D02*Y183250D01*
Y187750D02*X45750Y188500D01*
X47250D01*
X48000Y187750D01*
Y183250D01*
X47250Y182500D02*X48000Y183250D01*
X45750Y182500D02*X47250D01*
X45000Y184000D02*X48000Y187000D01*
X49800Y182500D02*X50550D01*
X52350Y183250D02*X53100Y182500D01*
X52350Y187750D02*Y183250D01*
Y187750D02*X53100Y188500D01*
X54600D01*
X55350Y187750D01*
Y183250D01*
X54600Y182500D02*X55350Y183250D01*
X53100Y182500D02*X54600D01*
X52350Y184000D02*X55350Y187000D01*
X57150Y187750D02*X57900Y188500D01*
X60150D01*
X60900Y187750D01*
Y186250D01*
X57150Y182500D02*X60900Y186250D01*
X57150Y182500D02*X60900D01*
X62700Y183250D02*X63450Y182500D01*
X62700Y187750D02*Y183250D01*
Y187750D02*X63450Y188500D01*
X64950D01*
X65700Y187750D01*
Y183250D01*
X64950Y182500D02*X65700Y183250D01*
X63450Y182500D02*X64950D01*
X62700Y184000D02*X65700Y187000D01*
X3000Y203500D02*X3750Y202750D01*
X750Y203500D02*X3000D01*
X0Y202750D02*X750Y203500D01*
X0Y202750D02*Y201250D01*
X750Y200500D01*
X3000D01*
X3750Y199750D01*
Y198250D01*
X3000Y197500D02*X3750Y198250D01*
X750Y197500D02*X3000D01*
X0Y198250D02*X750Y197500D01*
X5550Y200500D02*Y198250D01*
X6300Y197500D01*
X8550Y200500D02*Y196000D01*
X7800Y195250D02*X8550Y196000D01*
X6300Y195250D02*X7800D01*
X5550Y196000D02*X6300Y195250D01*
Y197500D02*X7800D01*
X8550Y198250D01*
X11100Y199750D02*Y197500D01*
Y199750D02*X11850Y200500D01*
X12600D01*
X13350Y199750D01*
Y197500D01*
Y199750D02*X14100Y200500D01*
X14850D01*
X15600Y199750D01*
Y197500D01*
X10350Y200500D02*X11100Y199750D01*
X17400Y203500D02*Y197500D01*
Y198250D02*X18150Y197500D01*
X19650D01*
X20400Y198250D01*
Y199750D02*Y198250D01*
X19650Y200500D02*X20400Y199750D01*
X18150Y200500D02*X19650D01*
X17400Y199750D02*X18150Y200500D01*
X22200Y199750D02*Y198250D01*
Y199750D02*X22950Y200500D01*
X24450D01*
X25200Y199750D01*
Y198250D01*
X24450Y197500D02*X25200Y198250D01*
X22950Y197500D02*X24450D01*
X22200Y198250D02*X22950Y197500D01*
X27000Y203500D02*Y198250D01*
X27750Y197500D01*
X0Y194250D02*X29250D01*
X41750Y203500D02*Y197500D01*
X43700Y203500D02*X44750Y202450D01*
Y198550D01*
X43700Y197500D02*X44750Y198550D01*
X41000Y197500D02*X43700D01*
X41000Y203500D02*X43700D01*
G54D71*X46550Y202000D02*Y201850D01*
G54D70*Y199750D02*Y197500D01*
X50300Y200500D02*X51050Y199750D01*
X48800Y200500D02*X50300D01*
X48050Y199750D02*X48800Y200500D01*
X48050Y199750D02*Y198250D01*
X48800Y197500D01*
X51050Y200500D02*Y198250D01*
X51800Y197500D01*
X48800D02*X50300D01*
X51050Y198250D01*
X54350Y199750D02*Y197500D01*
Y199750D02*X55100Y200500D01*
X55850D01*
X56600Y199750D01*
Y197500D01*
Y199750D02*X57350Y200500D01*
X58100D01*
X58850Y199750D01*
Y197500D01*
X53600Y200500D02*X54350Y199750D01*
X60650Y197500D02*X61400D01*
X65900Y198250D02*X66650Y197500D01*
X65900Y202750D02*X66650Y203500D01*
X65900Y202750D02*Y198250D01*
X68450Y203500D02*X69950D01*
X69200D02*Y197500D01*
X68450D02*X69950D01*
X72500Y199750D02*Y197500D01*
Y199750D02*X73250Y200500D01*
X74000D01*
X74750Y199750D01*
Y197500D01*
X71750Y200500D02*X72500Y199750D01*
X77300Y200500D02*X79550D01*
X76550Y199750D02*X77300Y200500D01*
X76550Y199750D02*Y198250D01*
X77300Y197500D01*
X79550D01*
X81350Y203500D02*Y197500D01*
Y199750D02*X82100Y200500D01*
X83600D01*
X84350Y199750D01*
Y197500D01*
X86150Y203500D02*X86900Y202750D01*
Y198250D01*
X86150Y197500D02*X86900Y198250D01*
X41000Y194250D02*X88700D01*
X96050Y197500D02*X98000D01*
X95000Y198550D02*X96050Y197500D01*
X95000Y202450D02*Y198550D01*
Y202450D02*X96050Y203500D01*
X98000D01*
X99800Y199750D02*Y198250D01*
Y199750D02*X100550Y200500D01*
X102050D01*
X102800Y199750D01*
Y198250D01*
X102050Y197500D02*X102800Y198250D01*
X100550Y197500D02*X102050D01*
X99800Y198250D02*X100550Y197500D01*
X104600Y200500D02*Y198250D01*
X105350Y197500D01*
X106850D01*
X107600Y198250D01*
Y200500D02*Y198250D01*
X110150Y199750D02*Y197500D01*
Y199750D02*X110900Y200500D01*
X111650D01*
X112400Y199750D01*
Y197500D01*
X109400Y200500D02*X110150Y199750D01*
X114950Y203500D02*Y198250D01*
X115700Y197500D01*
X114200Y201250D02*X115700D01*
X95000Y194250D02*X117200D01*
X130750Y203500D02*Y197500D01*
X130000Y203500D02*X133000D01*
X133750Y202750D01*
Y201250D01*
X133000Y200500D02*X133750Y201250D01*
X130750Y200500D02*X133000D01*
X135550Y203500D02*Y198250D01*
X136300Y197500D01*
X140050Y200500D02*X140800Y199750D01*
X138550Y200500D02*X140050D01*
X137800Y199750D02*X138550Y200500D01*
X137800Y199750D02*Y198250D01*
X138550Y197500D01*
X140800Y200500D02*Y198250D01*
X141550Y197500D01*
X138550D02*X140050D01*
X140800Y198250D01*
X144100Y203500D02*Y198250D01*
X144850Y197500D01*
X143350Y201250D02*X144850D01*
X147100Y197500D02*X149350D01*
X146350Y198250D02*X147100Y197500D01*
X146350Y199750D02*Y198250D01*
Y199750D02*X147100Y200500D01*
X148600D01*
X149350Y199750D01*
X146350Y199000D02*X149350D01*
Y199750D02*Y199000D01*
X154150Y203500D02*Y197500D01*
X153400D02*X154150Y198250D01*
X151900Y197500D02*X153400D01*
X151150Y198250D02*X151900Y197500D01*
X151150Y199750D02*Y198250D01*
Y199750D02*X151900Y200500D01*
X153400D01*
X154150Y199750D01*
X157450Y200500D02*Y199750D01*
Y198250D02*Y197500D01*
X155950Y202750D02*Y202000D01*
Y202750D02*X156700Y203500D01*
X158200D01*
X158950Y202750D01*
Y202000D01*
X157450Y200500D02*X158950Y202000D01*
X130000Y194250D02*X160750D01*
X0Y218500D02*X3000D01*
X1500D02*Y212500D01*
X4800Y218500D02*Y212500D01*
Y214750D02*X5550Y215500D01*
X7050D01*
X7800Y214750D01*
Y212500D01*
X10350D02*X12600D01*
X9600Y213250D02*X10350Y212500D01*
X9600Y214750D02*Y213250D01*
Y214750D02*X10350Y215500D01*
X11850D01*
X12600Y214750D01*
X9600Y214000D02*X12600D01*
Y214750D02*Y214000D01*
X15150Y214750D02*Y212500D01*
Y214750D02*X15900Y215500D01*
X17400D01*
X14400D02*X15150Y214750D01*
X19950Y212500D02*X22200D01*
X19200Y213250D02*X19950Y212500D01*
X19200Y214750D02*Y213250D01*
Y214750D02*X19950Y215500D01*
X21450D01*
X22200Y214750D01*
X19200Y214000D02*X22200D01*
Y214750D02*Y214000D01*
X28950Y215500D02*X29700Y214750D01*
X27450Y215500D02*X28950D01*
X26700Y214750D02*X27450Y215500D01*
X26700Y214750D02*Y213250D01*
X27450Y212500D01*
X29700Y215500D02*Y213250D01*
X30450Y212500D01*
X27450D02*X28950D01*
X29700Y213250D01*
X33000Y214750D02*Y212500D01*
Y214750D02*X33750Y215500D01*
X35250D01*
X32250D02*X33000Y214750D01*
X37800Y212500D02*X40050D01*
X37050Y213250D02*X37800Y212500D01*
X37050Y214750D02*Y213250D01*
Y214750D02*X37800Y215500D01*
X39300D01*
X40050Y214750D01*
X37050Y214000D02*X40050D01*
Y214750D02*Y214000D01*
X46800Y218500D02*X47550Y217750D01*
X45300Y218500D02*X46800D01*
X44550Y217750D02*X45300Y218500D01*
X44550Y217750D02*Y213250D01*
X45300Y212500D01*
X46800Y215800D02*X47550Y215050D01*
X44550Y215800D02*X46800D01*
X45300Y212500D02*X46800D01*
X47550Y213250D01*
Y215050D02*Y213250D01*
X55050Y218500D02*Y212500D01*
X54300D02*X55050Y213250D01*
X52800Y212500D02*X54300D01*
X52050Y213250D02*X52800Y212500D01*
X52050Y214750D02*Y213250D01*
Y214750D02*X52800Y215500D01*
X54300D01*
X55050Y214750D01*
G54D71*X56850Y217000D02*Y216850D01*
G54D70*Y214750D02*Y212500D01*
X59100Y217750D02*Y212500D01*
Y217750D02*X59850Y218500D01*
X60600D01*
X58350Y215500D02*X59850D01*
X62850Y217750D02*Y212500D01*
Y217750D02*X63600Y218500D01*
X64350D01*
X62100Y215500D02*X63600D01*
X66600Y212500D02*X68850D01*
X65850Y213250D02*X66600Y212500D01*
X65850Y214750D02*Y213250D01*
Y214750D02*X66600Y215500D01*
X68100D01*
X68850Y214750D01*
X65850Y214000D02*X68850D01*
Y214750D02*Y214000D01*
X71400Y214750D02*Y212500D01*
Y214750D02*X72150Y215500D01*
X73650D01*
X70650D02*X71400Y214750D01*
X76200Y212500D02*X78450D01*
X75450Y213250D02*X76200Y212500D01*
X75450Y214750D02*Y213250D01*
Y214750D02*X76200Y215500D01*
X77700D01*
X78450Y214750D01*
X75450Y214000D02*X78450D01*
Y214750D02*Y214000D01*
X81000Y214750D02*Y212500D01*
Y214750D02*X81750Y215500D01*
X82500D01*
X83250Y214750D01*
Y212500D01*
X80250Y215500D02*X81000Y214750D01*
X85800Y218500D02*Y213250D01*
X86550Y212500D01*
X85050Y216250D02*X86550D01*
X93750Y218500D02*Y212500D01*
X93000D02*X93750Y213250D01*
X91500Y212500D02*X93000D01*
X90750Y213250D02*X91500Y212500D01*
X90750Y214750D02*Y213250D01*
Y214750D02*X91500Y215500D01*
X93000D01*
X93750Y214750D01*
X96300D02*Y212500D01*
Y214750D02*X97050Y215500D01*
X98550D01*
X95550D02*X96300Y214750D01*
G54D71*X100350Y217000D02*Y216850D01*
G54D70*Y214750D02*Y212500D01*
X101850Y218500D02*Y213250D01*
X102600Y212500D01*
X104100Y218500D02*Y213250D01*
X104850Y212500D01*
X109800D02*X112050D01*
X112800Y213250D01*
X112050Y214000D02*X112800Y213250D01*
X109800Y214000D02*X112050D01*
X109050Y214750D02*X109800Y214000D01*
X109050Y214750D02*X109800Y215500D01*
X112050D01*
X112800Y214750D01*
X109050Y213250D02*X109800Y212500D01*
G54D71*X114600Y217000D02*Y216850D01*
G54D70*Y214750D02*Y212500D01*
X116100Y215500D02*X119100D01*
X116100Y212500D02*X119100Y215500D01*
X116100Y212500D02*X119100D01*
X121650D02*X123900D01*
X120900Y213250D02*X121650Y212500D01*
X120900Y214750D02*Y213250D01*
Y214750D02*X121650Y215500D01*
X123150D01*
X123900Y214750D01*
X120900Y214000D02*X123900D01*
Y214750D02*Y214000D01*
X126450Y212500D02*X128700D01*
X129450Y213250D01*
X128700Y214000D02*X129450Y213250D01*
X126450Y214000D02*X128700D01*
X125700Y214750D02*X126450Y214000D01*
X125700Y214750D02*X126450Y215500D01*
X128700D01*
X129450Y214750D01*
X125700Y213250D02*X126450Y212500D01*
X133950Y215500D02*Y213250D01*
X134700Y212500D01*
X136200D01*
X136950Y213250D01*
Y215500D02*Y213250D01*
X139500Y212500D02*X141750D01*
X142500Y213250D01*
X141750Y214000D02*X142500Y213250D01*
X139500Y214000D02*X141750D01*
X138750Y214750D02*X139500Y214000D01*
X138750Y214750D02*X139500Y215500D01*
X141750D01*
X142500Y214750D01*
X138750Y213250D02*X139500Y212500D01*
X145050D02*X147300D01*
X144300Y213250D02*X145050Y212500D01*
X144300Y214750D02*Y213250D01*
Y214750D02*X145050Y215500D01*
X146550D01*
X147300Y214750D01*
X144300Y214000D02*X147300D01*
Y214750D02*Y214000D01*
X152100Y218500D02*Y212500D01*
X151350D02*X152100Y213250D01*
X149850Y212500D02*X151350D01*
X149100Y213250D02*X149850Y212500D01*
X149100Y214750D02*Y213250D01*
Y214750D02*X149850Y215500D01*
X151350D01*
X152100Y214750D01*
G54D71*X156600Y217000D02*Y216850D01*
G54D70*Y214750D02*Y212500D01*
X158850Y214750D02*Y212500D01*
Y214750D02*X159600Y215500D01*
X160350D01*
X161100Y214750D01*
Y212500D01*
X158100Y215500D02*X158850Y214750D01*
X166350Y218500D02*Y213250D01*
X167100Y212500D01*
X165600Y216250D02*X167100D01*
X168600Y218500D02*Y212500D01*
Y214750D02*X169350Y215500D01*
X170850D01*
X171600Y214750D01*
Y212500D01*
G54D71*X173400Y217000D02*Y216850D01*
G54D70*Y214750D02*Y212500D01*
X175650D02*X177900D01*
X178650Y213250D01*
X177900Y214000D02*X178650Y213250D01*
X175650Y214000D02*X177900D01*
X174900Y214750D02*X175650Y214000D01*
X174900Y214750D02*X175650Y215500D01*
X177900D01*
X178650Y214750D01*
X174900Y213250D02*X175650Y212500D01*
X183150Y218500D02*Y213250D01*
X183900Y212500D01*
X187650Y215500D02*X188400Y214750D01*
X186150Y215500D02*X187650D01*
X185400Y214750D02*X186150Y215500D01*
X185400Y214750D02*Y213250D01*
X186150Y212500D01*
X188400Y215500D02*Y213250D01*
X189150Y212500D01*
X186150D02*X187650D01*
X188400Y213250D01*
X190950Y215500D02*Y213250D01*
X191700Y212500D01*
X193950Y215500D02*Y211000D01*
X193200Y210250D02*X193950Y211000D01*
X191700Y210250D02*X193200D01*
X190950Y211000D02*X191700Y210250D01*
Y212500D02*X193200D01*
X193950Y213250D01*
X195750Y214750D02*Y213250D01*
Y214750D02*X196500Y215500D01*
X198000D01*
X198750Y214750D01*
Y213250D01*
X198000Y212500D02*X198750Y213250D01*
X196500Y212500D02*X198000D01*
X195750Y213250D02*X196500Y212500D01*
X200550Y215500D02*Y213250D01*
X201300Y212500D01*
X202800D01*
X203550Y213250D01*
Y215500D02*Y213250D01*
X206100Y218500D02*Y213250D01*
X206850Y212500D01*
X205350Y216250D02*X206850D01*
X208350Y211000D02*X209850Y212500D01*
X214350Y214750D02*X217350Y218500D01*
X214350Y214750D02*X218100D01*
X217350Y218500D02*Y212500D01*
X219900Y214750D02*X222900Y218500D01*
X219900Y214750D02*X223650D01*
X222900Y218500D02*Y212500D01*
X228150Y218500D02*Y212500D01*
Y214750D02*X228900Y215500D01*
X230400D01*
X231150Y214750D01*
Y212500D01*
X232950Y214750D02*Y213250D01*
Y214750D02*X233700Y215500D01*
X235200D01*
X235950Y214750D01*
Y213250D01*
X235200Y212500D02*X235950Y213250D01*
X233700Y212500D02*X235200D01*
X232950Y213250D02*X233700Y212500D01*
X237750Y218500D02*Y213250D01*
X238500Y212500D01*
X240750D02*X243000D01*
X240000Y213250D02*X240750Y212500D01*
X240000Y214750D02*Y213250D01*
Y214750D02*X240750Y215500D01*
X242250D01*
X243000Y214750D01*
X240000Y214000D02*X243000D01*
Y214750D02*Y214000D01*
X245550Y212500D02*X247800D01*
X248550Y213250D01*
X247800Y214000D02*X248550Y213250D01*
X245550Y214000D02*X247800D01*
X244800Y214750D02*X245550Y214000D01*
X244800Y214750D02*X245550Y215500D01*
X247800D01*
X248550Y214750D01*
X244800Y213250D02*X245550Y212500D01*
X253800Y218500D02*Y213250D01*
X254550Y212500D01*
X253050Y216250D02*X254550D01*
X256050Y214750D02*Y213250D01*
Y214750D02*X256800Y215500D01*
X258300D01*
X259050Y214750D01*
Y213250D01*
X258300Y212500D02*X259050Y213250D01*
X256800Y212500D02*X258300D01*
X256050Y213250D02*X256800Y212500D01*
X261600Y218500D02*Y213250D01*
X262350Y212500D01*
X260850Y216250D02*X262350D01*
X266100Y215500D02*X266850Y214750D01*
X264600Y215500D02*X266100D01*
X263850Y214750D02*X264600Y215500D01*
X263850Y214750D02*Y213250D01*
X264600Y212500D01*
X266850Y215500D02*Y213250D01*
X267600Y212500D01*
X264600D02*X266100D01*
X266850Y213250D01*
X269400Y218500D02*Y213250D01*
X270150Y212500D01*
G54D72*X0Y100000D02*X170000D01*
X0D02*Y0D01*
X170000Y100000D02*Y0D01*
X0D02*X170000D01*
G54D70*X200000Y113500D02*Y107500D01*
Y113500D02*X202250Y110500D01*
X204500Y113500D01*
Y107500D01*
X208550Y110500D02*X209300Y109750D01*
X207050Y110500D02*X208550D01*
X206300Y109750D02*X207050Y110500D01*
X206300Y109750D02*Y108250D01*
X207050Y107500D01*
X209300Y110500D02*Y108250D01*
X210050Y107500D01*
X207050D02*X208550D01*
X209300Y108250D01*
X211850Y110500D02*X214850Y107500D01*
X211850D02*X214850Y110500D01*
G54D71*X216650Y112000D02*Y111850D01*
G54D70*Y109750D02*Y107500D01*
X218900Y109750D02*Y107500D01*
Y109750D02*X219650Y110500D01*
X220400D01*
X221150Y109750D01*
Y107500D01*
Y109750D02*X221900Y110500D01*
X222650D01*
X223400Y109750D01*
Y107500D01*
X218150Y110500D02*X218900Y109750D01*
X225200Y110500D02*Y108250D01*
X225950Y107500D01*
X227450D01*
X228200Y108250D01*
Y110500D02*Y108250D01*
X230750Y109750D02*Y107500D01*
Y109750D02*X231500Y110500D01*
X232250D01*
X233000Y109750D01*
Y107500D01*
Y109750D02*X233750Y110500D01*
X234500D01*
X235250Y109750D01*
Y107500D01*
X230000Y110500D02*X230750Y109750D01*
X240500Y113500D02*Y107500D01*
X242450Y113500D02*X243500Y112450D01*
Y108550D01*
X242450Y107500D02*X243500Y108550D01*
X239750Y107500D02*X242450D01*
X239750Y113500D02*X242450D01*
G54D71*X245300Y112000D02*Y111850D01*
G54D70*Y109750D02*Y107500D01*
X247550Y109750D02*Y107500D01*
Y109750D02*X248300Y110500D01*
X249050D01*
X249800Y109750D01*
Y107500D01*
Y109750D02*X250550Y110500D01*
X251300D01*
X252050Y109750D01*
Y107500D01*
X246800Y110500D02*X247550Y109750D01*
X254600Y107500D02*X256850D01*
X253850Y108250D02*X254600Y107500D01*
X253850Y109750D02*Y108250D01*
Y109750D02*X254600Y110500D01*
X256100D01*
X256850Y109750D01*
X253850Y109000D02*X256850D01*
Y109750D02*Y109000D01*
X259400Y109750D02*Y107500D01*
Y109750D02*X260150Y110500D01*
X260900D01*
X261650Y109750D01*
Y107500D01*
X258650Y110500D02*X259400Y109750D01*
X264200Y107500D02*X266450D01*
X267200Y108250D01*
X266450Y109000D02*X267200Y108250D01*
X264200Y109000D02*X266450D01*
X263450Y109750D02*X264200Y109000D01*
X263450Y109750D02*X264200Y110500D01*
X266450D01*
X267200Y109750D01*
X263450Y108250D02*X264200Y107500D01*
G54D71*X269000Y112000D02*Y111850D01*
G54D70*Y109750D02*Y107500D01*
X270500Y109750D02*Y108250D01*
Y109750D02*X271250Y110500D01*
X272750D01*
X273500Y109750D01*
Y108250D01*
X272750Y107500D02*X273500Y108250D01*
X271250Y107500D02*X272750D01*
X270500Y108250D02*X271250Y107500D01*
X276050Y109750D02*Y107500D01*
Y109750D02*X276800Y110500D01*
X277550D01*
X278300Y109750D01*
Y107500D01*
X275300Y110500D02*X276050Y109750D01*
X280850Y107500D02*X283100D01*
X283850Y108250D01*
X283100Y109000D02*X283850Y108250D01*
X280850Y109000D02*X283100D01*
X280100Y109750D02*X280850Y109000D01*
X280100Y109750D02*X280850Y110500D01*
X283100D01*
X283850Y109750D01*
X280100Y108250D02*X280850Y107500D01*
X285650Y111250D02*X286400D01*
X285650Y109750D02*X286400D01*
X290900Y112300D02*X292100Y113500D01*
Y107500D01*
X290900D02*X293150D01*
X295700D02*X298700Y113500D01*
X294950D02*X298700D01*
X300500Y108250D02*X301250Y107500D01*
X300500Y112750D02*Y108250D01*
Y112750D02*X301250Y113500D01*
X302750D01*
X303500Y112750D01*
Y108250D01*
X302750Y107500D02*X303500Y108250D01*
X301250Y107500D02*X302750D01*
X300500Y109000D02*X303500Y112000D01*
X305300Y108250D02*X306050Y107500D01*
X305300Y112750D02*Y108250D01*
Y112750D02*X306050Y113500D01*
X307550D01*
X308300Y112750D01*
Y108250D01*
X307550Y107500D02*X308300Y108250D01*
X306050Y107500D02*X307550D01*
X305300Y109000D02*X308300Y112000D01*
X310100Y107500D02*X310850D01*
X312650Y108250D02*X313400Y107500D01*
X312650Y112750D02*Y108250D01*
Y112750D02*X313400Y113500D01*
X314900D01*
X315650Y112750D01*
Y108250D01*
X314900Y107500D02*X315650Y108250D01*
X313400Y107500D02*X314900D01*
X312650Y109000D02*X315650Y112000D01*
X317450Y108250D02*X318200Y107500D01*
X317450Y112750D02*Y108250D01*
Y112750D02*X318200Y113500D01*
X319700D01*
X320450Y112750D01*
Y108250D01*
X319700Y107500D02*X320450Y108250D01*
X318200Y107500D02*X319700D01*
X317450Y109000D02*X320450Y112000D01*
X322250Y108250D02*X323000Y107500D01*
X322250Y112750D02*Y108250D01*
Y112750D02*X323000Y113500D01*
X324500D01*
X325250Y112750D01*
Y108250D01*
X324500Y107500D02*X325250Y108250D01*
X323000Y107500D02*X324500D01*
X322250Y109000D02*X325250Y112000D01*
X327050Y108250D02*X327800Y107500D01*
X327050Y112750D02*Y108250D01*
Y112750D02*X327800Y113500D01*
X329300D01*
X330050Y112750D01*
Y108250D01*
X329300Y107500D02*X330050Y108250D01*
X327800Y107500D02*X329300D01*
X327050Y109000D02*X330050Y112000D01*
X331850Y108250D02*X332600Y107500D01*
X331850Y112750D02*Y108250D01*
Y112750D02*X332600Y113500D01*
X334100D01*
X334850Y112750D01*
Y108250D01*
X334100Y107500D02*X334850Y108250D01*
X332600Y107500D02*X334100D01*
X331850Y109000D02*X334850Y112000D01*
X336650Y108250D02*X337400Y107500D01*
X336650Y112750D02*Y108250D01*
Y112750D02*X337400Y113500D01*
X338900D01*
X339650Y112750D01*
Y108250D01*
X338900Y107500D02*X339650Y108250D01*
X337400Y107500D02*X338900D01*
X336650Y109000D02*X339650Y112000D01*
X344900Y109750D02*Y107500D01*
Y109750D02*X345650Y110500D01*
X346400D01*
X347150Y109750D01*
Y107500D01*
Y109750D02*X347900Y110500D01*
X348650D01*
X349400Y109750D01*
Y107500D01*
X344150Y110500D02*X344900Y109750D01*
G54D71*X351200Y112000D02*Y111850D01*
G54D70*Y109750D02*Y107500D01*
X352700Y113500D02*Y108250D01*
X353450Y107500D01*
X355700D02*X357950D01*
X358700Y108250D01*
X357950Y109000D02*X358700Y108250D01*
X355700Y109000D02*X357950D01*
X354950Y109750D02*X355700Y109000D01*
X354950Y109750D02*X355700Y110500D01*
X357950D01*
X358700Y109750D01*
X354950Y108250D02*X355700Y107500D01*
X363200Y110500D02*Y108250D01*
X363950Y107500D01*
X364700D01*
X365450Y108250D01*
Y110500D02*Y108250D01*
X366200Y107500D01*
X366950D01*
X367700Y108250D01*
Y110500D02*Y108250D01*
G54D71*X369500Y112000D02*Y111850D01*
G54D70*Y109750D02*Y107500D01*
X374000Y113500D02*Y107500D01*
X373250D02*X374000Y108250D01*
X371750Y107500D02*X373250D01*
X371000Y108250D02*X371750Y107500D01*
X371000Y109750D02*Y108250D01*
Y109750D02*X371750Y110500D01*
X373250D01*
X374000Y109750D01*
X376550Y107500D02*X378800D01*
X375800Y108250D02*X376550Y107500D01*
X375800Y109750D02*Y108250D01*
Y109750D02*X376550Y110500D01*
X378050D01*
X378800Y109750D01*
X375800Y109000D02*X378800D01*
Y109750D02*Y109000D01*
X380600Y106000D02*X382100Y107500D01*
X386600Y112300D02*X387800Y113500D01*
Y107500D01*
X386600D02*X388850D01*
X390650Y108250D02*X391400Y107500D01*
X390650Y112750D02*Y108250D01*
Y112750D02*X391400Y113500D01*
X392900D01*
X393650Y112750D01*
Y108250D01*
X392900Y107500D02*X393650Y108250D01*
X391400Y107500D02*X392900D01*
X390650Y109000D02*X393650Y112000D01*
X395450Y108250D02*X396200Y107500D01*
X395450Y112750D02*Y108250D01*
Y112750D02*X396200Y113500D01*
X397700D01*
X398450Y112750D01*
Y108250D01*
X397700Y107500D02*X398450Y108250D01*
X396200Y107500D02*X397700D01*
X395450Y109000D02*X398450Y112000D01*
X400250Y108250D02*X401000Y107500D01*
X400250Y112750D02*Y108250D01*
Y112750D02*X401000Y113500D01*
X402500D01*
X403250Y112750D01*
Y108250D01*
X402500Y107500D02*X403250Y108250D01*
X401000Y107500D02*X402500D01*
X400250Y109000D02*X403250Y112000D01*
X405050Y107500D02*X405800D01*
X407600Y108250D02*X408350Y107500D01*
X407600Y112750D02*Y108250D01*
Y112750D02*X408350Y113500D01*
X409850D01*
X410600Y112750D01*
Y108250D01*
X409850Y107500D02*X410600Y108250D01*
X408350Y107500D02*X409850D01*
X407600Y109000D02*X410600Y112000D01*
X412400Y108250D02*X413150Y107500D01*
X412400Y112750D02*Y108250D01*
Y112750D02*X413150Y113500D01*
X414650D01*
X415400Y112750D01*
Y108250D01*
X414650Y107500D02*X415400Y108250D01*
X413150Y107500D02*X414650D01*
X412400Y109000D02*X415400Y112000D01*
X417200Y108250D02*X417950Y107500D01*
X417200Y112750D02*Y108250D01*
Y112750D02*X417950Y113500D01*
X419450D01*
X420200Y112750D01*
Y108250D01*
X419450Y107500D02*X420200Y108250D01*
X417950Y107500D02*X419450D01*
X417200Y109000D02*X420200Y112000D01*
X422000Y108250D02*X422750Y107500D01*
X422000Y112750D02*Y108250D01*
Y112750D02*X422750Y113500D01*
X424250D01*
X425000Y112750D01*
Y108250D01*
X424250Y107500D02*X425000Y108250D01*
X422750Y107500D02*X424250D01*
X422000Y109000D02*X425000Y112000D01*
X426800Y108250D02*X427550Y107500D01*
X426800Y112750D02*Y108250D01*
Y112750D02*X427550Y113500D01*
X429050D01*
X429800Y112750D01*
Y108250D01*
X429050Y107500D02*X429800Y108250D01*
X427550Y107500D02*X429050D01*
X426800Y109000D02*X429800Y112000D01*
X431600Y108250D02*X432350Y107500D01*
X431600Y112750D02*Y108250D01*
Y112750D02*X432350Y113500D01*
X433850D01*
X434600Y112750D01*
Y108250D01*
X433850Y107500D02*X434600Y108250D01*
X432350Y107500D02*X433850D01*
X431600Y109000D02*X434600Y112000D01*
X439850Y109750D02*Y107500D01*
Y109750D02*X440600Y110500D01*
X441350D01*
X442100Y109750D01*
Y107500D01*
Y109750D02*X442850Y110500D01*
X443600D01*
X444350Y109750D01*
Y107500D01*
X439100Y110500D02*X439850Y109750D01*
G54D71*X446150Y112000D02*Y111850D01*
G54D70*Y109750D02*Y107500D01*
X447650Y113500D02*Y108250D01*
X448400Y107500D01*
X450650D02*X452900D01*
X453650Y108250D01*
X452900Y109000D02*X453650Y108250D01*
X450650Y109000D02*X452900D01*
X449900Y109750D02*X450650Y109000D01*
X449900Y109750D02*X450650Y110500D01*
X452900D01*
X453650Y109750D01*
X449900Y108250D02*X450650Y107500D01*
X458150Y113500D02*Y107500D01*
Y109750D02*X458900Y110500D01*
X460400D01*
X461150Y109750D01*
Y107500D01*
G54D71*X462950Y112000D02*Y111850D01*
G54D70*Y109750D02*Y107500D01*
X466700Y110500D02*X467450Y109750D01*
X465200Y110500D02*X466700D01*
X464450Y109750D02*X465200Y110500D01*
X464450Y109750D02*Y108250D01*
X465200Y107500D01*
X466700D01*
X467450Y108250D01*
X464450Y106000D02*X465200Y105250D01*
X466700D01*
X467450Y106000D01*
Y110500D02*Y106000D01*
X469250Y113500D02*Y107500D01*
Y109750D02*X470000Y110500D01*
X471500D01*
X472250Y109750D01*
Y107500D01*
X0Y-9500D02*X3000D01*
X3750Y-8750D01*
Y-6950D02*Y-8750D01*
X3000Y-6200D02*X3750Y-6950D01*
X750Y-6200D02*X3000D01*
X750Y-3500D02*Y-9500D01*
X0Y-3500D02*X3000D01*
X3750Y-4250D01*
Y-5450D01*
X3000Y-6200D02*X3750Y-5450D01*
X5550Y-7250D02*Y-8750D01*
Y-7250D02*X6300Y-6500D01*
X7800D01*
X8550Y-7250D01*
Y-8750D01*
X7800Y-9500D02*X8550Y-8750D01*
X6300Y-9500D02*X7800D01*
X5550Y-8750D02*X6300Y-9500D01*
X12600Y-6500D02*X13350Y-7250D01*
X11100Y-6500D02*X12600D01*
X10350Y-7250D02*X11100Y-6500D01*
X10350Y-7250D02*Y-8750D01*
X11100Y-9500D01*
X13350Y-6500D02*Y-8750D01*
X14100Y-9500D01*
X11100D02*X12600D01*
X13350Y-8750D01*
X16650Y-7250D02*Y-9500D01*
Y-7250D02*X17400Y-6500D01*
X18900D01*
X15900D02*X16650Y-7250D01*
X23700Y-3500D02*Y-9500D01*
X22950D02*X23700Y-8750D01*
X21450Y-9500D02*X22950D01*
X20700Y-8750D02*X21450Y-9500D01*
X20700Y-7250D02*Y-8750D01*
Y-7250D02*X21450Y-6500D01*
X22950D01*
X23700Y-7250D01*
X28200D02*Y-8750D01*
Y-7250D02*X28950Y-6500D01*
X30450D01*
X31200Y-7250D01*
Y-8750D01*
X30450Y-9500D02*X31200Y-8750D01*
X28950Y-9500D02*X30450D01*
X28200Y-8750D02*X28950Y-9500D01*
X33000Y-6500D02*Y-8750D01*
X33750Y-9500D01*
X35250D01*
X36000Y-8750D01*
Y-6500D02*Y-8750D01*
X38550Y-3500D02*Y-8750D01*
X39300Y-9500D01*
X37800Y-5750D02*X39300D01*
X40800Y-3500D02*Y-8750D01*
X41550Y-9500D01*
G54D71*X43050Y-5000D02*Y-5150D01*
G54D70*Y-7250D02*Y-9500D01*
X45300Y-7250D02*Y-9500D01*
Y-7250D02*X46050Y-6500D01*
X46800D01*
X47550Y-7250D01*
Y-9500D01*
X44550Y-6500D02*X45300Y-7250D01*
X50100Y-9500D02*X52350D01*
X49350Y-8750D02*X50100Y-9500D01*
X49350Y-7250D02*Y-8750D01*
Y-7250D02*X50100Y-6500D01*
X51600D01*
X52350Y-7250D01*
X49350Y-8000D02*X52350D01*
Y-7250D02*Y-8000D01*
G54D71*X56850Y-5000D02*Y-5150D01*
G54D70*Y-7250D02*Y-9500D01*
X59100D02*X61350D01*
X62100Y-8750D01*
X61350Y-8000D02*X62100Y-8750D01*
X59100Y-8000D02*X61350D01*
X58350Y-7250D02*X59100Y-8000D01*
X58350Y-7250D02*X59100Y-6500D01*
X61350D01*
X62100Y-7250D01*
X58350Y-8750D02*X59100Y-9500D01*
X67350Y-3500D02*Y-8750D01*
X68100Y-9500D01*
X66600Y-5750D02*X68100D01*
X69600Y-3500D02*Y-9500D01*
Y-7250D02*X70350Y-6500D01*
X71850D01*
X72600Y-7250D01*
Y-9500D01*
X75150D02*X77400D01*
X74400Y-8750D02*X75150Y-9500D01*
X74400Y-7250D02*Y-8750D01*
Y-7250D02*X75150Y-6500D01*
X76650D01*
X77400Y-7250D01*
X74400Y-8000D02*X77400D01*
Y-7250D02*Y-8000D01*
X82650Y-6500D02*X84900D01*
X81900Y-7250D02*X82650Y-6500D01*
X81900Y-7250D02*Y-8750D01*
X82650Y-9500D01*
X84900D01*
X87450D02*X89700D01*
X86700Y-8750D02*X87450Y-9500D01*
X86700Y-7250D02*Y-8750D01*
Y-7250D02*X87450Y-6500D01*
X88950D01*
X89700Y-7250D01*
X86700Y-8000D02*X89700D01*
Y-7250D02*Y-8000D01*
X92250Y-7250D02*Y-9500D01*
Y-7250D02*X93000Y-6500D01*
X93750D01*
X94500Y-7250D01*
Y-9500D01*
X91500Y-6500D02*X92250Y-7250D01*
X97050Y-3500D02*Y-8750D01*
X97800Y-9500D01*
X96300Y-5750D02*X97800D01*
X100050Y-9500D02*X102300D01*
X99300Y-8750D02*X100050Y-9500D01*
X99300Y-7250D02*Y-8750D01*
Y-7250D02*X100050Y-6500D01*
X101550D01*
X102300Y-7250D01*
X99300Y-8000D02*X102300D01*
Y-7250D02*Y-8000D01*
X104850Y-7250D02*Y-9500D01*
Y-7250D02*X105600Y-6500D01*
X107100D01*
X104100D02*X104850Y-7250D01*
X108900Y-3500D02*Y-8750D01*
X109650Y-9500D01*
G54D71*X111150Y-5000D02*Y-5150D01*
G54D70*Y-7250D02*Y-9500D01*
X113400Y-7250D02*Y-9500D01*
Y-7250D02*X114150Y-6500D01*
X114900D01*
X115650Y-7250D01*
Y-9500D01*
X112650Y-6500D02*X113400Y-7250D01*
X118200Y-9500D02*X120450D01*
X117450Y-8750D02*X118200Y-9500D01*
X117450Y-7250D02*Y-8750D01*
Y-7250D02*X118200Y-6500D01*
X119700D01*
X120450Y-7250D01*
X117450Y-8000D02*X120450D01*
Y-7250D02*Y-8000D01*
X124950Y-7250D02*Y-8750D01*
Y-7250D02*X125700Y-6500D01*
X127200D01*
X127950Y-7250D01*
Y-8750D01*
X127200Y-9500D02*X127950Y-8750D01*
X125700Y-9500D02*X127200D01*
X124950Y-8750D02*X125700Y-9500D01*
X130500Y-4250D02*Y-9500D01*
Y-4250D02*X131250Y-3500D01*
X132000D01*
X129750Y-6500D02*X131250D01*
X136950Y-3500D02*Y-8750D01*
X137700Y-9500D01*
X136200Y-5750D02*X137700D01*
X139200Y-3500D02*Y-9500D01*
Y-7250D02*X139950Y-6500D01*
X141450D01*
X142200Y-7250D01*
Y-9500D01*
G54D71*X144000Y-5000D02*Y-5150D01*
G54D70*Y-7250D02*Y-9500D01*
X146250D02*X148500D01*
X149250Y-8750D01*
X148500Y-8000D02*X149250Y-8750D01*
X146250Y-8000D02*X148500D01*
X145500Y-7250D02*X146250Y-8000D01*
X145500Y-7250D02*X146250Y-6500D01*
X148500D01*
X149250Y-7250D01*
X145500Y-8750D02*X146250Y-9500D01*
X153750Y-8750D02*X154500Y-9500D01*
X153750Y-7550D02*Y-8750D01*
Y-7550D02*X154800Y-6500D01*
X155700D01*
X156750Y-7550D01*
Y-8750D01*
X156000Y-9500D02*X156750Y-8750D01*
X154500Y-9500D02*X156000D01*
X153750Y-5450D02*X154800Y-6500D01*
X153750Y-4250D02*Y-5450D01*
Y-4250D02*X154500Y-3500D01*
X156000D01*
X156750Y-4250D01*
Y-5450D01*
X155700Y-6500D02*X156750Y-5450D01*
X158550Y-9500D02*X159300D01*
X161100Y-8750D02*X161850Y-9500D01*
X161100Y-4250D02*Y-8750D01*
Y-4250D02*X161850Y-3500D01*
X163350D01*
X164100Y-4250D01*
Y-8750D01*
X163350Y-9500D02*X164100Y-8750D01*
X161850Y-9500D02*X163350D01*
X161100Y-8000D02*X164100Y-5000D01*
X165900Y-8750D02*X166650Y-9500D01*
X165900Y-4250D02*Y-8750D01*
Y-4250D02*X166650Y-3500D01*
X168150D01*
X168900Y-4250D01*
Y-8750D01*
X168150Y-9500D02*X168900Y-8750D01*
X166650Y-9500D02*X168150D01*
X165900Y-8000D02*X168900Y-5000D01*
X170700Y-8750D02*X171450Y-9500D01*
X170700Y-4250D02*Y-8750D01*
Y-4250D02*X171450Y-3500D01*
X172950D01*
X173700Y-4250D01*
Y-8750D01*
X172950Y-9500D02*X173700Y-8750D01*
X171450Y-9500D02*X172950D01*
X170700Y-8000D02*X173700Y-5000D01*
X175500Y-8750D02*X176250Y-9500D01*
X175500Y-4250D02*Y-8750D01*
Y-4250D02*X176250Y-3500D01*
X177750D01*
X178500Y-4250D01*
Y-8750D01*
X177750Y-9500D02*X178500Y-8750D01*
X176250Y-9500D02*X177750D01*
X175500Y-8000D02*X178500Y-5000D01*
X180300Y-8750D02*X181050Y-9500D01*
X180300Y-4250D02*Y-8750D01*
Y-4250D02*X181050Y-3500D01*
X182550D01*
X183300Y-4250D01*
Y-8750D01*
X182550Y-9500D02*X183300Y-8750D01*
X181050Y-9500D02*X182550D01*
X180300Y-8000D02*X183300Y-5000D01*
X185100Y-8750D02*X185850Y-9500D01*
X185100Y-4250D02*Y-8750D01*
Y-4250D02*X185850Y-3500D01*
X187350D01*
X188100Y-4250D01*
Y-8750D01*
X187350Y-9500D02*X188100Y-8750D01*
X185850Y-9500D02*X187350D01*
X185100Y-8000D02*X188100Y-5000D01*
X193350Y-7250D02*Y-9500D01*
Y-7250D02*X194100Y-6500D01*
X194850D01*
X195600Y-7250D01*
Y-9500D01*
Y-7250D02*X196350Y-6500D01*
X197100D01*
X197850Y-7250D01*
Y-9500D01*
X192600Y-6500D02*X193350Y-7250D01*
G54D71*X199650Y-5000D02*Y-5150D01*
G54D70*Y-7250D02*Y-9500D01*
X201150Y-3500D02*Y-8750D01*
X201900Y-9500D01*
X206850Y-7250D02*Y-9500D01*
Y-7250D02*X207600Y-6500D01*
X209100D01*
X206100D02*X206850Y-7250D01*
X211650Y-9500D02*X213900D01*
X210900Y-8750D02*X211650Y-9500D01*
X210900Y-7250D02*Y-8750D01*
Y-7250D02*X211650Y-6500D01*
X213150D01*
X213900Y-7250D01*
X210900Y-8000D02*X213900D01*
Y-7250D02*Y-8000D01*
X216450Y-6500D02*X218700D01*
X215700Y-7250D02*X216450Y-6500D01*
X215700Y-7250D02*Y-8750D01*
X216450Y-9500D01*
X218700D01*
X221250Y-3500D02*Y-8750D01*
X222000Y-9500D01*
X220500Y-5750D02*X222000D01*
X225750Y-6500D02*X226500Y-7250D01*
X224250Y-6500D02*X225750D01*
X223500Y-7250D02*X224250Y-6500D01*
X223500Y-7250D02*Y-8750D01*
X224250Y-9500D01*
X226500Y-6500D02*Y-8750D01*
X227250Y-9500D01*
X224250D02*X225750D01*
X226500Y-8750D01*
X229800Y-7250D02*Y-9500D01*
Y-7250D02*X230550Y-6500D01*
X231300D01*
X232050Y-7250D01*
Y-9500D01*
X229050Y-6500D02*X229800Y-7250D01*
X236100Y-6500D02*X236850Y-7250D01*
X234600Y-6500D02*X236100D01*
X233850Y-7250D02*X234600Y-6500D01*
X233850Y-7250D02*Y-8750D01*
X234600Y-9500D01*
X236100D01*
X236850Y-8750D01*
X233850Y-11000D02*X234600Y-11750D01*
X236100D01*
X236850Y-11000D01*
Y-6500D02*Y-11000D01*
X238650Y-3500D02*Y-8750D01*
X239400Y-9500D01*
X241650D02*X243900D01*
X240900Y-8750D02*X241650Y-9500D01*
X240900Y-7250D02*Y-8750D01*
Y-7250D02*X241650Y-6500D01*
X243150D01*
X243900Y-7250D01*
X240900Y-8000D02*X243900D01*
Y-7250D02*Y-8000D01*
X248400Y-6500D02*X251400D01*
X255900Y-8750D02*X256650Y-9500D01*
X255900Y-4250D02*Y-8750D01*
Y-4250D02*X256650Y-3500D01*
X258150D01*
X258900Y-4250D01*
Y-8750D01*
X258150Y-9500D02*X258900Y-8750D01*
X256650Y-9500D02*X258150D01*
X255900Y-8000D02*X258900Y-5000D01*
X260700Y-11000D02*X262200Y-9500D01*
X264000Y-8750D02*X264750Y-9500D01*
X264000Y-4250D02*Y-8750D01*
Y-4250D02*X264750Y-3500D01*
X266250D01*
X267000Y-4250D01*
Y-8750D01*
X266250Y-9500D02*X267000Y-8750D01*
X264750Y-9500D02*X266250D01*
X264000Y-8000D02*X267000Y-5000D01*
X272250Y-3500D02*Y-8750D01*
X273000Y-9500D01*
X271500Y-5750D02*X273000D01*
X274500Y-7250D02*Y-8750D01*
Y-7250D02*X275250Y-6500D01*
X276750D01*
X277500Y-7250D01*
Y-8750D01*
X276750Y-9500D02*X277500Y-8750D01*
X275250Y-9500D02*X276750D01*
X274500Y-8750D02*X275250Y-9500D01*
X282000Y-4700D02*X283200Y-3500D01*
Y-9500D01*
X282000D02*X284250D01*
X286800D02*X289800Y-3500D01*
X286050D02*X289800D01*
X291600Y-8750D02*X292350Y-9500D01*
X291600Y-4250D02*Y-8750D01*
Y-4250D02*X292350Y-3500D01*
X293850D01*
X294600Y-4250D01*
Y-8750D01*
X293850Y-9500D02*X294600Y-8750D01*
X292350Y-9500D02*X293850D01*
X291600Y-8000D02*X294600Y-5000D01*
X296400Y-8750D02*X297150Y-9500D01*
X296400Y-4250D02*Y-8750D01*
Y-4250D02*X297150Y-3500D01*
X298650D01*
X299400Y-4250D01*
Y-8750D01*
X298650Y-9500D02*X299400Y-8750D01*
X297150Y-9500D02*X298650D01*
X296400Y-8000D02*X299400Y-5000D01*
X301200Y-9500D02*X301950D01*
X303750Y-8750D02*X304500Y-9500D01*
X303750Y-4250D02*Y-8750D01*
Y-4250D02*X304500Y-3500D01*
X306000D01*
X306750Y-4250D01*
Y-8750D01*
X306000Y-9500D02*X306750Y-8750D01*
X304500Y-9500D02*X306000D01*
X303750Y-8000D02*X306750Y-5000D01*
X308550Y-8750D02*X309300Y-9500D01*
X308550Y-4250D02*Y-8750D01*
Y-4250D02*X309300Y-3500D01*
X310800D01*
X311550Y-4250D01*
Y-8750D01*
X310800Y-9500D02*X311550Y-8750D01*
X309300Y-9500D02*X310800D01*
X308550Y-8000D02*X311550Y-5000D01*
X313350Y-8750D02*X314100Y-9500D01*
X313350Y-4250D02*Y-8750D01*
Y-4250D02*X314100Y-3500D01*
X315600D01*
X316350Y-4250D01*
Y-8750D01*
X315600Y-9500D02*X316350Y-8750D01*
X314100Y-9500D02*X315600D01*
X313350Y-8000D02*X316350Y-5000D01*
X318150Y-8750D02*X318900Y-9500D01*
X318150Y-4250D02*Y-8750D01*
Y-4250D02*X318900Y-3500D01*
X320400D01*
X321150Y-4250D01*
Y-8750D01*
X320400Y-9500D02*X321150Y-8750D01*
X318900Y-9500D02*X320400D01*
X318150Y-8000D02*X321150Y-5000D01*
X322950Y-8750D02*X323700Y-9500D01*
X322950Y-4250D02*Y-8750D01*
Y-4250D02*X323700Y-3500D01*
X325200D01*
X325950Y-4250D01*
Y-8750D01*
X325200Y-9500D02*X325950Y-8750D01*
X323700Y-9500D02*X325200D01*
X322950Y-8000D02*X325950Y-5000D01*
X327750Y-8750D02*X328500Y-9500D01*
X327750Y-4250D02*Y-8750D01*
Y-4250D02*X328500Y-3500D01*
X330000D01*
X330750Y-4250D01*
Y-8750D01*
X330000Y-9500D02*X330750Y-8750D01*
X328500Y-9500D02*X330000D01*
X327750Y-8000D02*X330750Y-5000D01*
X332550Y-11000D02*X334050Y-9500D01*
X335850Y-4700D02*X337050Y-3500D01*
Y-9500D01*
X335850D02*X338100D01*
X339900Y-8750D02*X340650Y-9500D01*
X339900Y-4250D02*Y-8750D01*
Y-4250D02*X340650Y-3500D01*
X342150D01*
X342900Y-4250D01*
Y-8750D01*
X342150Y-9500D02*X342900Y-8750D01*
X340650Y-9500D02*X342150D01*
X339900Y-8000D02*X342900Y-5000D01*
X344700Y-8750D02*X345450Y-9500D01*
X344700Y-4250D02*Y-8750D01*
Y-4250D02*X345450Y-3500D01*
X346950D01*
X347700Y-4250D01*
Y-8750D01*
X346950Y-9500D02*X347700Y-8750D01*
X345450Y-9500D02*X346950D01*
X344700Y-8000D02*X347700Y-5000D01*
X349500Y-8750D02*X350250Y-9500D01*
X349500Y-4250D02*Y-8750D01*
Y-4250D02*X350250Y-3500D01*
X351750D01*
X352500Y-4250D01*
Y-8750D01*
X351750Y-9500D02*X352500Y-8750D01*
X350250Y-9500D02*X351750D01*
X349500Y-8000D02*X352500Y-5000D01*
X354300Y-9500D02*X355050D01*
X356850Y-8750D02*X357600Y-9500D01*
X356850Y-4250D02*Y-8750D01*
Y-4250D02*X357600Y-3500D01*
X359100D01*
X359850Y-4250D01*
Y-8750D01*
X359100Y-9500D02*X359850Y-8750D01*
X357600Y-9500D02*X359100D01*
X356850Y-8000D02*X359850Y-5000D01*
X361650Y-8750D02*X362400Y-9500D01*
X361650Y-4250D02*Y-8750D01*
Y-4250D02*X362400Y-3500D01*
X363900D01*
X364650Y-4250D01*
Y-8750D01*
X363900Y-9500D02*X364650Y-8750D01*
X362400Y-9500D02*X363900D01*
X361650Y-8000D02*X364650Y-5000D01*
X366450Y-8750D02*X367200Y-9500D01*
X366450Y-4250D02*Y-8750D01*
Y-4250D02*X367200Y-3500D01*
X368700D01*
X369450Y-4250D01*
Y-8750D01*
X368700Y-9500D02*X369450Y-8750D01*
X367200Y-9500D02*X368700D01*
X366450Y-8000D02*X369450Y-5000D01*
X371250Y-8750D02*X372000Y-9500D01*
X371250Y-4250D02*Y-8750D01*
Y-4250D02*X372000Y-3500D01*
X373500D01*
X374250Y-4250D01*
Y-8750D01*
X373500Y-9500D02*X374250Y-8750D01*
X372000Y-9500D02*X373500D01*
X371250Y-8000D02*X374250Y-5000D01*
X376050Y-8750D02*X376800Y-9500D01*
X376050Y-4250D02*Y-8750D01*
Y-4250D02*X376800Y-3500D01*
X378300D01*
X379050Y-4250D01*
Y-8750D01*
X378300Y-9500D02*X379050Y-8750D01*
X376800Y-9500D02*X378300D01*
X376050Y-8000D02*X379050Y-5000D01*
X380850Y-8750D02*X381600Y-9500D01*
X380850Y-4250D02*Y-8750D01*
Y-4250D02*X381600Y-3500D01*
X383100D01*
X383850Y-4250D01*
Y-8750D01*
X383100Y-9500D02*X383850Y-8750D01*
X381600Y-9500D02*X383100D01*
X380850Y-8000D02*X383850Y-5000D01*
X389100Y-7250D02*Y-9500D01*
Y-7250D02*X389850Y-6500D01*
X390600D01*
X391350Y-7250D01*
Y-9500D01*
Y-7250D02*X392100Y-6500D01*
X392850D01*
X393600Y-7250D01*
Y-9500D01*
X388350Y-6500D02*X389100Y-7250D01*
G54D71*X395400Y-5000D02*Y-5150D01*
G54D70*Y-7250D02*Y-9500D01*
X396900Y-3500D02*Y-8750D01*
X397650Y-9500D01*
X399900D02*X402150D01*
X402900Y-8750D01*
X402150Y-8000D02*X402900Y-8750D01*
X399900Y-8000D02*X402150D01*
X399150Y-7250D02*X399900Y-8000D01*
X399150Y-7250D02*X399900Y-6500D01*
X402150D01*
X402900Y-7250D01*
X399150Y-8750D02*X399900Y-9500D01*
X200750Y128500D02*Y122500D01*
X202700Y128500D02*X203750Y127450D01*
Y123550D01*
X202700Y122500D02*X203750Y123550D01*
X200000Y122500D02*X202700D01*
X200000Y128500D02*X202700D01*
X207800Y125500D02*X208550Y124750D01*
X206300Y125500D02*X207800D01*
X205550Y124750D02*X206300Y125500D01*
X205550Y124750D02*Y123250D01*
X206300Y122500D01*
X208550Y125500D02*Y123250D01*
X209300Y122500D01*
X206300D02*X207800D01*
X208550Y123250D01*
X211850Y128500D02*Y123250D01*
X212600Y122500D01*
X211100Y126250D02*X212600D01*
X214850Y122500D02*X217100D01*
X214100Y123250D02*X214850Y122500D01*
X214100Y124750D02*Y123250D01*
Y124750D02*X214850Y125500D01*
X216350D01*
X217100Y124750D01*
X214100Y124000D02*X217100D01*
Y124750D02*Y124000D01*
X218900Y126250D02*X219650D01*
X218900Y124750D02*X219650D01*
X227150Y128500D02*X227900Y127750D01*
X224900Y128500D02*X227150D01*
X224150Y127750D02*X224900Y128500D01*
X224150Y127750D02*Y126250D01*
X224900Y125500D01*
X227150D01*
X227900Y124750D01*
Y123250D01*
X227150Y122500D02*X227900Y123250D01*
X224900Y122500D02*X227150D01*
X224150Y123250D02*X224900Y122500D01*
X229700Y125500D02*Y123250D01*
X230450Y122500D01*
X231950D01*
X232700Y123250D01*
Y125500D02*Y123250D01*
X235250Y124750D02*Y122500D01*
Y124750D02*X236000Y125500D01*
X236750D01*
X237500Y124750D01*
Y122500D01*
X234500Y125500D02*X235250Y124750D01*
X242000Y127750D02*X242750Y128500D01*
X245000D01*
X245750Y127750D01*
Y126250D01*
X242000Y122500D02*X245750Y126250D01*
X242000Y122500D02*X245750D01*
X247550Y128500D02*X250550D01*
X247550D02*Y125500D01*
X248300Y126250D01*
X249800D01*
X250550Y125500D01*
Y123250D01*
X249800Y122500D02*X250550Y123250D01*
X248300Y122500D02*X249800D01*
X247550Y123250D02*X248300Y122500D01*
X255050Y127000D02*Y122500D01*
Y127000D02*X256100Y128500D01*
X257750D01*
X258800Y127000D01*
Y122500D01*
X255050Y125500D02*X258800D01*
X260600D02*Y123250D01*
X261350Y122500D01*
X262850D01*
X263600Y123250D01*
Y125500D02*Y123250D01*
X267650Y125500D02*X268400Y124750D01*
X266150Y125500D02*X267650D01*
X265400Y124750D02*X266150Y125500D01*
X265400Y124750D02*Y123250D01*
X266150Y122500D01*
X267650D01*
X268400Y123250D01*
X265400Y121000D02*X266150Y120250D01*
X267650D01*
X268400Y121000D01*
Y125500D02*Y121000D01*
X272900Y127750D02*X273650Y128500D01*
X275900D01*
X276650Y127750D01*
Y126250D01*
X272900Y122500D02*X276650Y126250D01*
X272900Y122500D02*X276650D01*
X278450Y123250D02*X279200Y122500D01*
X278450Y127750D02*Y123250D01*
Y127750D02*X279200Y128500D01*
X280700D01*
X281450Y127750D01*
Y123250D01*
X280700Y122500D02*X281450Y123250D01*
X279200Y122500D02*X280700D01*
X278450Y124000D02*X281450Y127000D01*
X283250Y127300D02*X284450Y128500D01*
Y122500D01*
X283250D02*X285500D01*
X287300Y127750D02*X288050Y128500D01*
X289550D01*
X290300Y127750D01*
X289550Y122500D02*X290300Y123250D01*
X288050Y122500D02*X289550D01*
X287300Y123250D02*X288050Y122500D01*
Y125800D02*X289550D01*
X290300Y127750D02*Y126550D01*
Y125050D02*Y123250D01*
Y125050D02*X289550Y125800D01*
X290300Y126550D02*X289550Y125800D01*
X294800Y123250D02*X295550Y122500D01*
X294800Y127750D02*Y123250D01*
Y127750D02*X295550Y128500D01*
X297050D01*
X297800Y127750D01*
Y123250D01*
X297050Y122500D02*X297800Y123250D01*
X295550Y122500D02*X297050D01*
X294800Y124000D02*X297800Y127000D01*
X299600Y124750D02*X302600Y128500D01*
X299600Y124750D02*X303350D01*
X302600Y128500D02*Y122500D01*
X305150Y126250D02*X305900D01*
X305150Y124750D02*X305900D01*
X307700Y127300D02*X308900Y128500D01*
Y122500D01*
X307700D02*X309950D01*
X312500D02*X315500Y128500D01*
X311750D02*X315500D01*
X317300Y126250D02*X318050D01*
X317300Y124750D02*X318050D01*
X319850Y127750D02*X320600Y128500D01*
X322100D01*
X322850Y127750D01*
X322100Y122500D02*X322850Y123250D01*
X320600Y122500D02*X322100D01*
X319850Y123250D02*X320600Y122500D01*
Y125800D02*X322100D01*
X322850Y127750D02*Y126550D01*
Y125050D02*Y123250D01*
Y125050D02*X322100Y125800D01*
X322850Y126550D02*X322100Y125800D01*
X325400Y122500D02*X327650Y125500D01*
Y127750D02*Y125500D01*
X326900Y128500D02*X327650Y127750D01*
X325400Y128500D02*X326900D01*
X324650Y127750D02*X325400Y128500D01*
X324650Y127750D02*Y126250D01*
X325400Y125500D01*
X327650D01*
X332150Y127000D02*Y122500D01*
Y127000D02*X333200Y128500D01*
X334850D01*
X335900Y127000D01*
Y122500D01*
X332150Y125500D02*X335900D01*
X337700Y128500D02*Y122500D01*
Y128500D02*X339950Y125500D01*
X342200Y128500D01*
Y122500D01*
X349700Y128500D02*X350450Y127750D01*
X347450Y128500D02*X349700D01*
X346700Y127750D02*X347450Y128500D01*
X346700Y127750D02*Y123250D01*
X347450Y122500D01*
X349700D01*
X350450Y123250D01*
Y124750D02*Y123250D01*
X349700Y125500D02*X350450Y124750D01*
X348200Y125500D02*X349700D01*
X352250Y128500D02*Y122500D01*
Y128500D02*X354500Y125500D01*
X356750Y128500D01*
Y122500D01*
X358550Y128500D02*X361550D01*
X360050D02*Y122500D01*
X366050Y128500D02*Y123250D01*
X366800Y122500D01*
X368300D01*
X369050Y123250D01*
Y128500D02*Y123250D01*
X370850Y128500D02*X373850D01*
X372350D02*Y122500D01*
X376700D02*X378650D01*
X375650Y123550D02*X376700Y122500D01*
X375650Y127450D02*Y123550D01*
Y127450D02*X376700Y128500D01*
X378650D01*
X200000Y142000D02*Y137500D01*
Y142000D02*X201050Y143500D01*
X202700D01*
X203750Y142000D01*
Y137500D01*
X200000Y140500D02*X203750D01*
X205550D02*Y138250D01*
X206300Y137500D01*
X207800D01*
X208550Y138250D01*
Y140500D02*Y138250D01*
X211100Y143500D02*Y138250D01*
X211850Y137500D01*
X210350Y141250D02*X211850D01*
X213350Y143500D02*Y137500D01*
Y139750D02*X214100Y140500D01*
X215600D01*
X216350Y139750D01*
Y137500D01*
X218150Y139750D02*Y138250D01*
Y139750D02*X218900Y140500D01*
X220400D01*
X221150Y139750D01*
Y138250D01*
X220400Y137500D02*X221150Y138250D01*
X218900Y137500D02*X220400D01*
X218150Y138250D02*X218900Y137500D01*
X223700Y139750D02*Y137500D01*
Y139750D02*X224450Y140500D01*
X225950D01*
X222950D02*X223700Y139750D01*
X227750Y141250D02*X228500D01*
X227750Y139750D02*X228500D01*
X233000Y143500D02*Y137500D01*
Y143500D02*X235250Y140500D01*
X237500Y143500D01*
Y137500D01*
G54D71*X239300Y142000D02*Y141850D01*
G54D70*Y139750D02*Y137500D01*
X241550Y140500D02*X243800D01*
X240800Y139750D02*X241550Y140500D01*
X240800Y139750D02*Y138250D01*
X241550Y137500D01*
X243800D01*
X245600Y143500D02*Y137500D01*
Y139750D02*X246350Y140500D01*
X247850D01*
X248600Y139750D01*
Y137500D01*
X252650Y140500D02*X253400Y139750D01*
X251150Y140500D02*X252650D01*
X250400Y139750D02*X251150Y140500D01*
X250400Y139750D02*Y138250D01*
X251150Y137500D01*
X253400Y140500D02*Y138250D01*
X254150Y137500D01*
X251150D02*X252650D01*
X253400Y138250D01*
X256700Y137500D02*X258950D01*
X255950Y138250D02*X256700Y137500D01*
X255950Y139750D02*Y138250D01*
Y139750D02*X256700Y140500D01*
X258200D01*
X258950Y139750D01*
X255950Y139000D02*X258950D01*
Y139750D02*Y139000D01*
X260750Y143500D02*Y138250D01*
X261500Y137500D01*
X266450Y143500D02*Y137500D01*
X265700Y143500D02*X268700D01*
X269450Y142750D01*
Y141250D01*
X268700Y140500D02*X269450Y141250D01*
X266450Y140500D02*X268700D01*
X272000Y137500D02*X274250D01*
X271250Y138250D02*X272000Y137500D01*
X271250Y139750D02*Y138250D01*
Y139750D02*X272000Y140500D01*
X273500D01*
X274250Y139750D01*
X271250Y139000D02*X274250D01*
Y139750D02*Y139000D01*
X276800Y143500D02*Y138250D01*
X277550Y137500D01*
X276050Y141250D02*X277550D01*
X279800Y137500D02*X282050D01*
X279050Y138250D02*X279800Y137500D01*
X279050Y139750D02*Y138250D01*
Y139750D02*X279800Y140500D01*
X281300D01*
X282050Y139750D01*
X279050Y139000D02*X282050D01*
Y139750D02*Y139000D01*
X284600Y139750D02*Y137500D01*
Y139750D02*X285350Y140500D01*
X286850D01*
X283850D02*X284600Y139750D01*
X289400Y137500D02*X291650D01*
X292400Y138250D01*
X291650Y139000D02*X292400Y138250D01*
X289400Y139000D02*X291650D01*
X288650Y139750D02*X289400Y139000D01*
X288650Y139750D02*X289400Y140500D01*
X291650D01*
X292400Y139750D01*
X288650Y138250D02*X289400Y137500D01*
X294950D02*X297200D01*
X294200Y138250D02*X294950Y137500D01*
X294200Y139750D02*Y138250D01*
Y139750D02*X294950Y140500D01*
X296450D01*
X297200Y139750D01*
X294200Y139000D02*X297200D01*
Y139750D02*Y139000D01*
X299750Y139750D02*Y137500D01*
Y139750D02*X300500Y140500D01*
X301250D01*
X302000Y139750D01*
Y137500D01*
X299000Y140500D02*X299750Y139750D01*
X200000Y158500D02*X203000D01*
X201500D02*Y152500D01*
G54D71*X204800Y157000D02*Y156850D01*
G54D70*Y154750D02*Y152500D01*
X207050Y158500D02*Y153250D01*
X207800Y152500D01*
X206300Y156250D02*X207800D01*
X209300Y158500D02*Y153250D01*
X210050Y152500D01*
X212300D02*X214550D01*
X211550Y153250D02*X212300Y152500D01*
X211550Y154750D02*Y153250D01*
Y154750D02*X212300Y155500D01*
X213800D01*
X214550Y154750D01*
X211550Y154000D02*X214550D01*
Y154750D02*Y154000D01*
X216350Y156250D02*X217100D01*
X216350Y154750D02*X217100D01*
X221600Y153250D02*X222350Y152500D01*
X221600Y157750D02*X222350Y158500D01*
X221600Y157750D02*Y153250D01*
X224150Y155500D02*Y153250D01*
X224900Y152500D01*
X226400D01*
X227150Y153250D01*
Y155500D02*Y153250D01*
X229700Y154750D02*Y152500D01*
Y154750D02*X230450Y155500D01*
X231200D01*
X231950Y154750D01*
Y152500D01*
X228950Y155500D02*X229700Y154750D01*
X233750Y158500D02*Y152500D01*
Y154750D02*X236000Y152500D01*
X233750Y154750D02*X235250Y156250D01*
X238550Y154750D02*Y152500D01*
Y154750D02*X239300Y155500D01*
X240050D01*
X240800Y154750D01*
Y152500D01*
X237800Y155500D02*X238550Y154750D01*
X242600D02*Y153250D01*
Y154750D02*X243350Y155500D01*
X244850D01*
X245600Y154750D01*
Y153250D01*
X244850Y152500D02*X245600Y153250D01*
X243350Y152500D02*X244850D01*
X242600Y153250D02*X243350Y152500D01*
X247400Y155500D02*Y153250D01*
X248150Y152500D01*
X248900D01*
X249650Y153250D01*
Y155500D02*Y153250D01*
X250400Y152500D01*
X251150D01*
X251900Y153250D01*
Y155500D02*Y153250D01*
X254450Y154750D02*Y152500D01*
Y154750D02*X255200Y155500D01*
X255950D01*
X256700Y154750D01*
Y152500D01*
X253700Y155500D02*X254450Y154750D01*
X258500Y158500D02*X259250Y157750D01*
Y153250D01*
X258500Y152500D02*X259250Y153250D01*
X263750Y155500D02*X266750D01*
X271250Y158500D02*Y152500D01*
Y158500D02*X274250D01*
X271250Y155800D02*X273500D01*
X278300Y155500D02*X279050Y154750D01*
X276800Y155500D02*X278300D01*
X276050Y154750D02*X276800Y155500D01*
X276050Y154750D02*Y153250D01*
X276800Y152500D01*
X279050Y155500D02*Y153250D01*
X279800Y152500D01*
X276800D02*X278300D01*
X279050Y153250D01*
X281600Y158500D02*Y152500D01*
Y153250D02*X282350Y152500D01*
X283850D01*
X284600Y153250D01*
Y154750D02*Y153250D01*
X283850Y155500D02*X284600Y154750D01*
X282350Y155500D02*X283850D01*
X281600Y154750D02*X282350Y155500D01*
X287150Y154750D02*Y152500D01*
Y154750D02*X287900Y155500D01*
X289400D01*
X286400D02*X287150Y154750D01*
G54D71*X291200Y157000D02*Y156850D01*
G54D70*Y154750D02*Y152500D01*
X293450Y155500D02*X295700D01*
X292700Y154750D02*X293450Y155500D01*
X292700Y154750D02*Y153250D01*
X293450Y152500D01*
X295700D01*
X299750Y155500D02*X300500Y154750D01*
X298250Y155500D02*X299750D01*
X297500Y154750D02*X298250Y155500D01*
X297500Y154750D02*Y153250D01*
X298250Y152500D01*
X300500Y155500D02*Y153250D01*
X301250Y152500D01*
X298250D02*X299750D01*
X300500Y153250D01*
X303800Y158500D02*Y153250D01*
X304550Y152500D01*
X303050Y156250D02*X304550D01*
G54D71*X306050Y157000D02*Y156850D01*
G54D70*Y154750D02*Y152500D01*
X307550Y154750D02*Y153250D01*
Y154750D02*X308300Y155500D01*
X309800D01*
X310550Y154750D01*
Y153250D01*
X309800Y152500D02*X310550Y153250D01*
X308300Y152500D02*X309800D01*
X307550Y153250D02*X308300Y152500D01*
X313100Y154750D02*Y152500D01*
Y154750D02*X313850Y155500D01*
X314600D01*
X315350Y154750D01*
Y152500D01*
X312350Y155500D02*X313100Y154750D01*
X320600Y158500D02*Y152500D01*
X322550Y158500D02*X323600Y157450D01*
Y153550D01*
X322550Y152500D02*X323600Y153550D01*
X319850Y152500D02*X322550D01*
X319850Y158500D02*X322550D01*
X326150Y154750D02*Y152500D01*
Y154750D02*X326900Y155500D01*
X328400D01*
X325400D02*X326150Y154750D01*
X332450Y155500D02*X333200Y154750D01*
X330950Y155500D02*X332450D01*
X330200Y154750D02*X330950Y155500D01*
X330200Y154750D02*Y153250D01*
X330950Y152500D01*
X333200Y155500D02*Y153250D01*
X333950Y152500D01*
X330950D02*X332450D01*
X333200Y153250D01*
X335750Y155500D02*Y153250D01*
X336500Y152500D01*
X337250D01*
X338000Y153250D01*
Y155500D02*Y153250D01*
X338750Y152500D01*
X339500D01*
X340250Y153250D01*
Y155500D02*Y153250D01*
G54D71*X342050Y157000D02*Y156850D01*
G54D70*Y154750D02*Y152500D01*
X344300Y154750D02*Y152500D01*
Y154750D02*X345050Y155500D01*
X345800D01*
X346550Y154750D01*
Y152500D01*
X343550Y155500D02*X344300Y154750D01*
X350600Y155500D02*X351350Y154750D01*
X349100Y155500D02*X350600D01*
X348350Y154750D02*X349100Y155500D01*
X348350Y154750D02*Y153250D01*
X349100Y152500D01*
X350600D01*
X351350Y153250D01*
X348350Y151000D02*X349100Y150250D01*
X350600D01*
X351350Y151000D01*
Y155500D02*Y151000D01*
M02*
