M48
INCH
T49C0.020
T48C0.129
T47C0.038
T46C0.048
T45C0.035
T44C0.128
%
T49
X012000Y007450
X012650Y006450
X013100Y006450
X014500Y007850
X014500Y008550
X014300Y003800
X013250Y005100
X013250Y004650
X001450Y005800
X012000Y005100
X012000Y004650
X012000Y005550
T45
X010200Y005350
X009700Y006350
X009200Y005350
X008700Y006350
X008200Y005350
X007700Y006350
X004400Y005350
X003900Y006350
X002900Y006350
X001900Y006350
X003400Y005350
X002400Y005350
T47
X016200Y004200
X016200Y005200
X016200Y006200
X016200Y007200
X016200Y008200
X016200Y009200
X005000Y003300
X006000Y003300
X007000Y003300
X005000Y001800
X006000Y001800
X007000Y001800
T46
X009900Y002300
X011900Y002300
T44
X010950Y008850
X006950Y008850
X005150Y008850
X001150Y008850
T48
X015300Y001700
X001700Y001700
M30
