G04 start of page 8 for group -4079 idx -4079 *
G04 Title: (unknown), topsilk *
G04 Creator: pcb 20110918 *
G04 CreationDate: Sun 25 Aug 2013 04:17:39 AM GMT UTC *
G04 For: railfan *
G04 Format: Gerber/RS-274X *
G04 PCB-Dimensions: 170000 100000 *
G04 PCB-Coordinate-Origin: lower left *
%MOIN*%
%FSLAX25Y25*%
%LNTOPSILK*%
%ADD64C,0.0100*%
G54D64*X119000Y8500D02*Y5500D01*
X116500D02*X121500D01*
X117500Y4000D02*X120500D01*
X151500Y65000D02*Y62000D01*
X149000D02*X154000D01*
X150000Y60500D02*X153000D01*
X151000Y59000D02*X152000D01*
X118500Y2500D02*X119500D01*
X500Y99500D02*Y500D01*
X50000Y10500D02*Y6500D01*
X48000Y8500D02*X52000D01*
X70000Y10500D02*Y6500D01*
X500Y500D02*X169500D01*
Y99500D01*
X500D01*
X94500Y7500D02*Y3500D01*
X95800Y7500D02*X96500Y6800D01*
Y4200D01*
X95800Y3500D02*X96500Y4200D01*
X94000Y3500D02*X95800D01*
X94000Y7500D02*X95800D01*
X97700Y6500D02*Y3500D01*
Y6500D02*X98400Y7500D01*
X99500D01*
X100200Y6500D01*
Y3500D01*
X97700Y5500D02*X100200D01*
X102100Y3500D02*X103400D01*
X101400Y4200D02*X102100Y3500D01*
X101400Y6800D02*Y4200D01*
Y6800D02*X102100Y7500D01*
X103400D01*
X42500Y30500D02*Y29200D01*
X41800Y28500D02*X42500Y29200D01*
X39200Y28500D02*X41800D01*
X39200D02*X38500Y29200D01*
Y30500D02*Y29200D01*
X39500Y31700D02*X42500D01*
X39500D02*X38500Y32400D01*
Y33500D02*Y32400D01*
Y33500D02*X39500Y34200D01*
X42500D01*
X40500D02*Y31700D01*
X42000Y35400D02*X42500Y35900D01*
X39000Y35400D02*X42000D01*
X39000D02*X38500Y35900D01*
Y36900D02*Y35900D01*
Y36900D02*X39000Y37400D01*
X42000D01*
X42500Y36900D02*X42000Y37400D01*
X42500Y36900D02*Y35900D01*
X41500Y35400D02*X39500Y37400D01*
X42500Y15500D02*Y14200D01*
X41800Y13500D02*X42500Y14200D01*
X39200Y13500D02*X41800D01*
X39200D02*X38500Y14200D01*
Y15500D02*Y14200D01*
X39500Y16700D02*X42500D01*
X39500D02*X38500Y17400D01*
Y18500D02*Y17400D01*
Y18500D02*X39500Y19200D01*
X42500D01*
X40500D02*Y16700D01*
X39300Y20400D02*X38500Y21200D01*
X42500D01*
Y21900D02*Y20400D01*
X146000Y44000D02*X148000D01*
X148500Y43500D01*
Y42500D01*
X148000Y42000D02*X148500Y42500D01*
X146500Y42000D02*X148000D01*
X146500Y44000D02*Y40000D01*
X147300Y42000D02*X148500Y40000D01*
X149700Y42200D02*X151200D01*
X149700Y40000D02*X151700D01*
X149700Y44000D02*Y40000D01*
Y44000D02*X151700D01*
X152900D02*Y40000D01*
Y44000D02*X154900D01*
X152900Y42200D02*X154400D01*
X146000Y54000D02*Y50000D01*
X147300Y54000D02*X148000Y53300D01*
Y50700D01*
X147300Y50000D02*X148000Y50700D01*
X145500Y50000D02*X147300D01*
X145500Y54000D02*X147300D01*
X149200Y53000D02*Y50000D01*
Y53000D02*X149900Y54000D01*
X151000D01*
X151700Y53000D01*
Y50000D01*
X149200Y52000D02*X151700D01*
X153600Y50000D02*X154900D01*
X152900Y50700D02*X153600Y50000D01*
X152900Y53300D02*Y50700D01*
Y53300D02*X153600Y54000D01*
X154900D01*
X147000Y74000D02*X147500Y73500D01*
X145500Y74000D02*X147000D01*
X145000Y73500D02*X145500Y74000D01*
X145000Y73500D02*Y72500D01*
X145500Y72000D01*
X147000D01*
X147500Y71500D01*
Y70500D01*
X147000Y70000D02*X147500Y70500D01*
X145500Y70000D02*X147000D01*
X145000Y70500D02*X145500Y70000D01*
X149200Y74000D02*Y70000D01*
X150500Y74000D02*X151200Y73300D01*
Y70700D01*
X150500Y70000D02*X151200Y70700D01*
X148700Y70000D02*X150500D01*
X148700Y74000D02*X150500D01*
X152400Y73000D02*Y70000D01*
Y73000D02*X153100Y74000D01*
X154200D01*
X154900Y73000D01*
Y70000D01*
X152400Y72000D02*X154900D01*
X148000Y84000D02*X148500Y83500D01*
X146500Y84000D02*X148000D01*
X146000Y83500D02*X146500Y84000D01*
X146000Y83500D02*Y82500D01*
X146500Y82000D01*
X148000D01*
X148500Y81500D01*
Y80500D01*
X148000Y80000D02*X148500Y80500D01*
X146500Y80000D02*X148000D01*
X146000Y80500D02*X146500Y80000D01*
X150400D02*X151700D01*
X149700Y80700D02*X150400Y80000D01*
X149700Y83300D02*Y80700D01*
Y83300D02*X150400Y84000D01*
X151700D01*
X152900D02*Y80000D01*
X154900D01*
X149000Y94000D02*X150000Y90000D01*
X151000Y94000D01*
X152200Y92000D02*X154200D01*
X153200Y93000D02*Y91000D01*
X5500Y48200D02*X57500D01*
Y71500D02*Y48200D01*
X5500Y71500D02*Y48200D01*
X63500D02*X115500D01*
Y71500D02*Y48200D01*
X63500Y71500D02*Y48200D01*
X135950Y68790D02*X129050D01*
X135950Y80210D02*X129050D01*
X126000Y80250D02*X126500D01*
Y80750D01*
X126000D02*X126500D01*
X126000D02*Y80250D01*
X89000Y10200D02*X129000D01*
X89000Y40200D02*X129000D01*
X89000Y35800D02*X129000D01*
X89000Y40200D02*Y10200D01*
X129000Y40200D02*Y10200D01*
X167000Y97000D02*Y37000D01*
X157000Y97000D02*X167000D01*
X157000D02*Y37000D01*
X167000D01*
X157000Y47000D02*X167000D01*
X157000D02*Y37000D01*
X129755Y55893D02*Y55107D01*
X124245Y55893D02*Y55107D01*
X140755Y55893D02*Y55107D01*
X135245Y55893D02*Y55107D01*
X45000Y28000D02*X75000D01*
Y38000D02*Y28000D01*
X45000Y38000D02*X75000D01*
X45000D02*Y28000D01*
X55000Y38000D02*Y28000D01*
X45000Y38000D02*X55000D01*
X45000Y13000D02*X75000D01*
Y23000D02*Y13000D01*
X45000Y23000D02*X75000D01*
X45000D02*Y13000D01*
X55000Y23000D02*Y13000D01*
X45000Y23000D02*X55000D01*
X77500Y30000D02*Y29200D01*
Y30000D02*X81000D01*
X81500Y29500D02*X81000Y30000D01*
X81500Y29500D02*Y29000D01*
X81000Y28500D02*X81500Y29000D01*
X80500Y28500D02*X81000D01*
X77500Y31700D02*X81500D01*
X77500Y33200D02*Y31200D01*
Y33200D02*X78000Y33700D01*
X79000D01*
X79500Y33200D02*X79000Y33700D01*
X79500Y33200D02*Y31700D01*
X78300Y34900D02*X77500Y35700D01*
X81500D01*
Y36400D02*Y34900D01*
X77500Y15000D02*Y14200D01*
Y15000D02*X81000D01*
X81500Y14500D02*X81000Y15000D01*
X81500Y14500D02*Y14000D01*
X81000Y13500D02*X81500Y14000D01*
X80500Y13500D02*X81000D01*
X77500Y16700D02*X81500D01*
X77500Y18200D02*Y16200D01*
Y18200D02*X78000Y18700D01*
X79000D01*
X79500Y18200D02*X79000Y18700D01*
X79500Y18200D02*Y16700D01*
X78000Y19900D02*X77500Y20400D01*
Y21900D02*Y20400D01*
Y21900D02*X78000Y22400D01*
X79000D01*
X81500Y19900D02*X79000Y22400D01*
X81500D02*Y19900D01*
X130504Y86500D02*Y83000D01*
X131004Y82500D01*
X132004D01*
X132504Y83000D01*
Y86500D02*Y83000D01*
X133704Y85700D02*X134504Y86500D01*
Y82500D01*
X133704D02*X135204D01*
X125136Y43650D02*X126436D01*
X124436Y44350D02*X125136Y43650D01*
X124436Y46950D02*Y44350D01*
Y46950D02*X125136Y47650D01*
X126436D01*
X127636Y46850D02*X128436Y47650D01*
Y43650D01*
X127636D02*X129136D01*
X135636D02*X136936D01*
X134936Y44350D02*X135636Y43650D01*
X134936Y46950D02*Y44350D01*
Y46950D02*X135636Y47650D01*
X136936D01*
X138136Y47150D02*X138636Y47650D01*
X140136D01*
X140636Y47150D01*
Y46150D01*
X138136Y43650D02*X140636Y46150D01*
X138136Y43650D02*X140636D01*
M02*
