G04 start of page 7 for group -4062 idx -4062 *
G04 Title: (unknown), soldermask *
G04 Creator: pcb 20110918 *
G04 CreationDate: Sun 25 Aug 2013 04:17:39 AM GMT UTC *
G04 For: railfan *
G04 Format: Gerber/RS-274X *
G04 PCB-Dimensions: 170000 100000 *
G04 PCB-Coordinate-Origin: lower left *
%MOIN*%
%FSLAX25Y25*%
%LNBOTTOMMASK*%
%ADD63C,0.0660*%
%ADD62C,0.2997*%
%ADD61C,0.0860*%
%ADD60C,0.0001*%
%ADD59C,0.0760*%
%ADD58C,0.1500*%
G54D58*X109500Y88500D03*
G54D59*X102000Y53500D03*
X97000Y63500D03*
X92000Y53500D03*
X87000Y63500D03*
X82000Y53500D03*
X77000Y63500D03*
G54D60*G36*
X94700Y27300D02*Y18700D01*
X103300D01*
Y27300D01*
X94700D01*
G37*
G54D61*X119000Y23000D03*
G54D60*G36*
X158700Y45300D02*Y38700D01*
X165300D01*
Y45300D01*
X158700D01*
G37*
G54D62*X153000Y17000D03*
G54D63*X162000Y52000D03*
Y62000D03*
Y72000D03*
Y82000D03*
Y92000D03*
G54D58*X69500Y88500D03*
X51500D03*
X11500D03*
G54D59*X44000Y53500D03*
X39000Y63500D03*
X29000D03*
X19000D03*
X34000Y53500D03*
X24000D03*
G54D62*X17000Y17000D03*
G54D60*G36*
X46700Y36300D02*Y29700D01*
X53300D01*
Y36300D01*
X46700D01*
G37*
G54D63*X60000Y33000D03*
X70000D03*
G54D60*G36*
X46700Y21300D02*Y14700D01*
X53300D01*
Y21300D01*
X46700D01*
G37*
G54D63*X60000Y18000D03*
X70000D03*
M02*
