G04 start of page 9 for group -4078 idx -4078 *
G04 Title: (unknown), bottomsilk *
G04 Creator: pcb 20110918 *
G04 CreationDate: Sun 25 Aug 2013 04:17:39 AM GMT UTC *
G04 For: railfan *
G04 Format: Gerber/RS-274X *
G04 PCB-Dimensions: 170000 100000 *
G04 PCB-Coordinate-Origin: lower left *
%MOIN*%
%FSLAX25Y25*%
%LNBOTTOMSILK*%
%ADD65C,0.0100*%
G54D65*X80500Y7500D02*X81500D01*
X81000D02*Y11500D01*
X80500D02*X81500D01*
X82700Y8000D02*X83200Y7500D01*
X84700D01*
X85200Y8000D01*
Y9000D01*
X82700Y11500D02*X85200Y9000D01*
X82700Y11500D02*X85200D01*
X87100D02*X88400D01*
X86400Y10800D02*X87100Y11500D01*
X86400Y8200D02*Y10800D01*
Y8200D02*X87100Y7500D01*
X88400D01*
X89600Y9500D02*X91600D01*
X92800Y7500D02*Y11500D01*
X94800D01*
X96000Y7500D02*X98000D01*
X97000D02*Y11500D01*
X99900D02*X101200D01*
X99200Y10800D02*X99900Y11500D01*
X99200Y8200D02*Y10800D01*
Y8200D02*X99900Y7500D01*
X101200D01*
X102400Y8000D02*X102900Y7500D01*
X104400D01*
X104900Y8000D01*
Y9000D01*
X102400Y11500D02*X104900Y9000D01*
X102400Y11500D02*X104900D01*
X107600Y7500D02*X108100Y8000D01*
X106600Y7500D02*X107600D01*
X106100Y8000D02*X106600Y7500D01*
X106100Y8000D02*Y11000D01*
X106600Y11500D01*
X107600Y9300D02*X108100Y9800D01*
X106100Y9300D02*X107600D01*
X106600Y11500D02*X107600D01*
X108100Y11000D01*
Y9800D02*Y11000D01*
X109300Y8000D02*X109800Y7500D01*
X110800D01*
X111300Y8000D01*
X110800Y11500D02*X111300Y11000D01*
X109800Y11500D02*X110800D01*
X109300Y11000D02*X109800Y11500D01*
Y9300D02*X110800D01*
X111300Y8000D02*Y8800D01*
Y9800D02*Y11000D01*
Y9800D02*X110800Y9300D01*
X111300Y8800D02*X110800Y9300D01*
X112500Y8300D02*X113300Y7500D01*
Y11500D01*
X112500D02*X114000D01*
X45000Y41000D02*X46000D01*
X45500D02*Y45000D01*
X45000D02*X46000D01*
X47200Y43500D02*Y44500D01*
Y43500D02*X47700Y43000D01*
X48700D01*
X49200Y43500D01*
Y44500D01*
X48700Y45000D02*X49200Y44500D01*
X47700Y45000D02*X48700D01*
X47200Y44500D02*X47700Y45000D01*
X50400Y43000D02*Y44500D01*
X50900Y45000D01*
X51400D01*
X51900Y44500D01*
Y43000D02*Y44500D01*
X52400Y45000D01*
X52900D01*
X53400Y44500D01*
Y43000D02*Y44500D01*
X56100Y43000D02*X56600Y43500D01*
X55100Y43000D02*X56100D01*
X54600Y43500D02*X55100Y43000D01*
X54600Y43500D02*Y44500D01*
X55100Y45000D01*
X56600Y43000D02*Y44500D01*
X57100Y45000D01*
X55100D02*X56100D01*
X56600Y44500D01*
X62100Y41000D02*X62600Y41500D01*
X60600Y41000D02*X62100D01*
X60100Y41500D02*X60600Y41000D01*
X60100Y41500D02*Y42500D01*
X60600Y43000D01*
X62100D01*
X62600Y43500D01*
Y44500D01*
X62100Y45000D02*X62600Y44500D01*
X60600Y45000D02*X62100D01*
X60100Y44500D02*X60600Y45000D01*
X64300Y43000D02*X65800D01*
X63800Y43500D02*X64300Y43000D01*
X63800Y43500D02*Y44500D01*
X64300Y45000D01*
X65800D01*
X68500Y43000D02*X69000Y43500D01*
X67500Y43000D02*X68500D01*
X67000Y43500D02*X67500Y43000D01*
X67000Y43500D02*Y44500D01*
X67500Y45000D01*
X69000Y43000D02*Y44500D01*
X69500Y45000D01*
X67500D02*X68500D01*
X69000Y44500D01*
X70700Y41000D02*Y44500D01*
X71200Y45000D01*
X72700D02*X74200D01*
X72200Y44500D02*X72700Y45000D01*
X72200Y43500D02*Y44500D01*
Y43500D02*X72700Y43000D01*
X73700D01*
X74200Y43500D01*
X72200Y44000D02*X74200D01*
Y43500D02*Y44000D01*
X77400Y41000D02*Y45000D01*
X76900D02*X77400Y44500D01*
X75900Y45000D02*X76900D01*
X75400Y44500D02*X75900Y45000D01*
X75400Y43500D02*Y44500D01*
Y43500D02*X75900Y43000D01*
X76900D01*
X77400Y43500D01*
X80400Y42800D02*X81900D01*
X80400Y45000D02*X82400D01*
X80400Y41000D02*Y45000D01*
Y41000D02*X82400D01*
X84100Y43500D02*Y45000D01*
Y43500D02*X84600Y43000D01*
X85100D01*
X85600Y43500D01*
Y45000D01*
X83600Y43000D02*X84100Y43500D01*
X88300Y43000D02*X88800Y43500D01*
X87300Y43000D02*X88300D01*
X86800Y43500D02*X87300Y43000D01*
X86800Y43500D02*Y44500D01*
X87300Y45000D01*
X88300D01*
X88800Y44500D01*
X86800Y46000D02*X87300Y46500D01*
X88300D01*
X88800Y46000D01*
Y43000D02*Y46000D01*
X90000Y42000D02*Y42100D01*
Y43500D02*Y45000D01*
X91500Y43500D02*Y45000D01*
Y43500D02*X92000Y43000D01*
X92500D01*
X93000Y43500D01*
Y45000D01*
X91000Y43000D02*X91500Y43500D01*
X94700Y45000D02*X96200D01*
X94200Y44500D02*X94700Y45000D01*
X94200Y43500D02*Y44500D01*
Y43500D02*X94700Y43000D01*
X95700D01*
X96200Y43500D01*
X94200Y44000D02*X96200D01*
Y43500D02*Y44000D01*
X97900Y45000D02*X99400D01*
X97400Y44500D02*X97900Y45000D01*
X97400Y43500D02*Y44500D01*
Y43500D02*X97900Y43000D01*
X98900D01*
X99400Y43500D01*
X97400Y44000D02*X99400D01*
Y43500D02*Y44000D01*
X101100Y43500D02*Y45000D01*
Y43500D02*X101600Y43000D01*
X102600D01*
X100600D02*X101100Y43500D01*
X103800Y42000D02*Y42100D01*
Y43500D02*Y45000D01*
X105300Y43500D02*Y45000D01*
Y43500D02*X105800Y43000D01*
X106300D01*
X106800Y43500D01*
Y45000D01*
X104800Y43000D02*X105300Y43500D01*
X109500Y43000D02*X110000Y43500D01*
X108500Y43000D02*X109500D01*
X108000Y43500D02*X108500Y43000D01*
X108000Y43500D02*Y44500D01*
X108500Y45000D01*
X109500D01*
X110000Y44500D01*
X108000Y46000D02*X108500Y46500D01*
X109500D01*
X110000Y46000D01*
Y43000D02*Y46000D01*
X119500Y9500D02*X120500Y11500D01*
X121500Y9500D02*X120500Y11500D01*
X122700Y8300D02*X123500Y7500D01*
Y11500D01*
X122700D02*X124200D01*
X125400D02*X125900D01*
X127100Y11000D02*X127600Y11500D01*
X127100Y8000D02*Y11000D01*
Y8000D02*X127600Y7500D01*
X128600D01*
X129100Y8000D01*
Y11000D01*
X128600Y11500D02*X129100Y11000D01*
X127600Y11500D02*X128600D01*
X127100Y10500D02*X129100Y8500D01*
M02*
